# Exported by MeshTransformEditorWindow
v 0.334999979 -7.450581E-09 0
v -0.334999979 0.125 0
v 0.335 0.124999985 0
v -0.334999979 7.450581E-09 0
v 0.334999979 -7.450581E-09 0.125
v -0.334999979 7.450581E-09 0
v 0.334999979 -7.450581E-09 0
v -0.334999979 7.450581E-09 0.125
v 0.334999979 -7.450581E-09 0
v 0.335 0.124999985 0
v 0.335 0.122598238 0.02438625
v 0.335 0.115484983 0.0478355
v 0.335 0.103933737 0.06944625
v 0.335 0.0883882344 0.08838825
v 0.335 0.0694462359 0.103933752
v 0.334999979 0.0478354879 0.115485
v 0.334999979 0.02438624 0.122598253
v 0.334999979 -7.450581E-09 0.125
v -0.334999979 7.450581E-09 0
v -0.334999979 0.122598253 0.02438625
v -0.334999979 0.125 0
v -0.334999979 0.115485 0.0478355
v -0.334999979 0.103933752 0.06944625
v -0.334999979 0.08838825 0.08838825
v -0.334999979 0.06944625 0.103933752
v -0.334999979 0.0478355028 0.115485
v -0.334999979 0.0243862551 0.122598253
v -0.334999979 7.450581E-09 0.125
v -0.334999979 0.125 0
v 0.335 0.122598238 0.02438625
v 0.335 0.124999985 0
v -0.334999979 0.122598253 0.02438625
v -0.334999979 0.122598253 0.02438625
v 0.335 0.115484983 0.0478355
v 0.335 0.122598238 0.02438625
v -0.334999979 0.115485 0.0478355
v -0.334999979 0.115485 0.0478355
v 0.335 0.103933737 0.06944625
v 0.335 0.115484983 0.0478355
v -0.334999979 0.103933752 0.06944625
v -0.334999979 0.103933752 0.06944625
v 0.335 0.0883882344 0.08838825
v 0.335 0.103933737 0.06944625
v -0.334999979 0.08838825 0.08838825
v -0.334999979 0.08838825 0.08838825
v 0.335 0.0694462359 0.103933752
v 0.335 0.0883882344 0.08838825
v -0.334999979 0.06944625 0.103933752
v -0.334999979 0.06944625 0.103933752
v 0.334999979 0.0478354879 0.115485
v 0.335 0.0694462359 0.103933752
v -0.334999979 0.0478355028 0.115485
v -0.334999979 0.0478355028 0.115485
v 0.334999979 0.02438624 0.122598253
v 0.334999979 0.0478354879 0.115485
v -0.334999979 0.0243862551 0.122598253
v -0.334999979 0.0243862551 0.122598253
v 0.334999979 -7.450581E-09 0.125
v 0.334999979 0.02438624 0.122598253
v -0.334999979 7.450581E-09 0.125
vn 0 0 -1
vn 0 0 -1
vn 0 0 -1
vn 0 0 -1
vn -2.224054E-08 -1 0
vn -2.224054E-08 -1 0
vn -2.224054E-08 -1 0
vn -2.224054E-08 -1 0
vn 1 -2.68150075E-07 -9.432423E-09
vn 1 -2.38418579E-07 -2.348131E-08
vn 1 -2.33837355E-07 -4.65128E-08
vn 1 -2.20269854E-07 -9.12389453E-08
vn 1 -1.9823716E-07 -1.32459135E-07
vn 1 -1.6858759E-07 -1.6858759E-07
vn 1 -6.4052665E-07 1.41242353E-07
vn 1 -5.645332E-07 2.33837511E-07
vn 1 0 0
vn 1 0 0
vn -1 0 0
vn -1 0 0
vn -1 0 0
vn -1 0 0
vn -1 0 0
vn -1 0 0
vn -1 0 0
vn -1 0 0
vn -1 0 0
vn -1 0 0
vn 2.21460752E-08 0.9951851 0.0980135351
vn 2.21460752E-08 0.9951851 0.0980135351
vn 2.21334542E-08 0.9951851 0.0980135351
vn 2.2158698E-08 0.9951851 0.0980135351
vn 2.1277538E-08 0.9569403 0.2902848
vn 2.1277538E-08 0.9569403 0.2902848
vn 2.12828688E-08 0.9569403 0.2902848
vn 2.12722053E-08 0.9569403 0.290284783
vn 1.95570315E-08 0.8819203 0.471398562
vn 1.95570315E-08 0.8819203 0.471398562
vn 1.9614383E-08 0.8819203 0.471398562
vn 1.949968E-08 0.8819203 0.471398562
vn 1.65731411E-08 0.7730063 0.634398341
vn 1.65731411E-08 0.7730063 0.634398341
vn 1.71920789E-08 0.7730063 0.634398341
vn 1.59542033E-08 0.7730063 0.634398341
vn 1.41454377E-08 0.634398341 0.7730063
vn 1.41454377E-08 0.634398341 0.7730063
vn 1.41093608E-08 0.634398341 0.7730063
vn 1.41815146E-08 0.634398341 0.7730063
vn 1.05601758E-08 0.471398622 0.8819202
vn 1.05601758E-08 0.471398622 0.8819202
vn 1.048416E-08 0.471398622 0.8819202
vn 1.06361906E-08 0.471398622 0.8819202
vn 6.330243E-09 0.290284842 0.9569403
vn 6.330243E-09 0.290284842 0.9569403
vn 6.456091E-09 0.290284783 0.9569403
vn 6.204394E-09 0.290284842 0.9569403
vn 2.197872E-09 0.09801354 0.9951851
vn 2.197872E-09 0.09801354 0.9951851
vn 2.179874E-09 0.0980135351 0.9951851
vn 2.21587E-09 0.09801354 0.9951851
g submesh_0
f 1//1 2//2 3//3
f 1//1 4//4 2//2
f 5//5 6//6 7//7
f 5//5 8//8 6//6
f 9//9 10//10 11//11
f 9//9 11//11 12//12
f 9//9 12//12 13//13
f 9//9 13//13 14//14
f 9//9 14//14 15//15
f 9//9 15//15 16//16
f 9//9 16//16 17//17
f 9//9 17//17 18//18
f 19//19 20//20 21//21
f 19//19 22//22 20//20
f 19//19 23//23 22//22
f 19//19 24//24 23//23
f 19//19 25//25 24//24
f 19//19 26//26 25//25
f 19//19 27//27 26//26
f 19//19 28//28 27//27
f 29//29 30//30 31//31
f 29//29 32//32 30//30
f 33//33 34//34 35//35
f 33//33 36//36 34//34
f 37//37 38//38 39//39
f 37//37 40//40 38//38
f 41//41 42//42 43//43
f 41//41 44//44 42//42
f 45//45 46//46 47//47
f 45//45 48//48 46//46
f 49//49 50//50 51//51
f 49//49 52//52 50//50
f 53//53 54//54 55//55
f 53//53 56//56 54//54
f 57//57 58//58 59//59
f 57//57 60//60 58//58
