# Exported by MeshTransformEditorWindow
v 0.125999987 0.0441000052 0
v 0.116408877 -0.044099994 0.0482176766
v 0.126 -0.044099994 0
v 0.116408862 0.0441000052 0.0482176766
v 0.08909586 -0.044099994 0.08909586
v 0.0890958458 0.0440999977 0.08909586
v 0.0482176766 -0.044099994 0.116408877
v 0.0482176729 0.0440999977 0.116408877
v 3.75509268E-09 -0.044099994 0.126
v -3.75509268E-09 0.044099994 0.126
v -0.0482176729 -0.0440999977 0.116408877
v -0.0482176766 0.044099994 0.116408877
v -0.0890958458 -0.0440999977 0.08909586
v -0.08909586 0.044099994 0.08909586
v -0.116408862 -0.0441000052 0.0482176766
v -0.116408877 0.044099994 0.0482176766
v -0.125999987 -0.0441000052 0
v -0.126 0.044099994 0
v -0.116408862 -0.0441000052 -0.0482176766
v -0.116408877 0.044099994 -0.0482176766
v -0.0890958458 -0.0440999977 -0.08909586
v -0.08909586 0.044099994 -0.08909586
v -0.0482176729 -0.0440999977 -0.116408877
v -0.0482176766 0.044099994 -0.116408877
v 3.75509268E-09 -0.044099994 -0.126
v -3.75509268E-09 0.044099994 -0.126
v 0.0482176766 -0.044099994 -0.116408877
v 0.0482176729 0.0440999977 -0.116408877
v 0.08909586 -0.044099994 -0.08909586
v 0.0890958458 0.0440999977 -0.08909586
v 0.116408877 -0.044099994 -0.0482176766
v 0.116408862 0.0441000052 -0.0482176766
v 0.126 -0.044099994 0
v 0.125999987 0.0441000052 0
v -3.75509268E-09 0.044099994 0
v -3.75509268E-09 0.044099994 0.126
v 0.0482176729 0.0440999977 0.116408877
v 0.0890958458 0.0440999977 0.08909586
v -0.0482176766 0.044099994 0.116408877
v 0.116408862 0.0441000052 0.0482176766
v -0.08909586 0.044099994 0.08909586
v 0.125999987 0.0441000052 0
v -0.116408877 0.044099994 0.0482176766
v 0.116408862 0.0441000052 -0.0482176766
v -0.126 0.044099994 0
v 0.0890958458 0.0440999977 -0.08909586
v -0.116408877 0.044099994 -0.0482176766
v 0.0482176729 0.0440999977 -0.116408877
v -0.08909586 0.044099994 -0.08909586
v -3.75509268E-09 0.044099994 -0.126
v -0.0482176766 0.044099994 -0.116408877
v 3.75509268E-09 -0.044099994 0
v 0.0482176766 -0.044099994 0.116408877
v 3.75509268E-09 -0.044099994 0.126
v 0.08909586 -0.044099994 0.08909586
v -0.0482176729 -0.0440999977 0.116408877
v 0.116408877 -0.044099994 0.0482176766
v -0.0890958458 -0.0440999977 0.08909586
v 0.126 -0.044099994 0
v -0.116408862 -0.0441000052 0.0482176766
v 0.116408877 -0.044099994 -0.0482176766
v -0.125999987 -0.0441000052 0
v 0.08909586 -0.044099994 -0.08909586
v -0.116408862 -0.0441000052 -0.0482176766
v 0.0482176766 -0.044099994 -0.116408877
v -0.0890958458 -0.0440999977 -0.08909586
v 3.75509268E-09 -0.044099994 -0.126
v -0.0482176729 -0.0440999977 -0.116408877
vt 0 0
vt 0.0625 0.5
vt 0 0.5
vt 0.0625 0
vt 0.125 0.5
vt 0.125 0
vt 0.1875 0.5
vt 0.1875 0
vt 0.25 0.5
vt 0.25 0
vt 0.3125 0.5
vt 0.3125 0
vt 0.375 0.5
vt 0.375 0
vt 0.4375 0.5
vt 0.4375 0
vt 0.5 0.5
vt 0.5 0
vt 0.5625 0.5
vt 0.5625 0
vt 0.625 0.5
vt 0.625 0
vt 0.6875 0.5
vt 0.6875 0
vt 0.75 0.5
vt 0.75 0
vt 0.8125 0.5
vt 0.8125 0
vt 0.875 0.5
vt 0.875 0
vt 0.9375 0.5
vt 0.9375 0
vt 1 0.5
vt 1 0
vt 0.25 0.75
vt 0.25 1
vt 0.345671 0.98097
vt 0.426777 0.926777
vt 0.154329 0.98097
vt 0.48097 0.845671
vt 0.073223 0.926777
vt 0.5 0.75
vt 0.01903 0.845671
vt 0.48097 0.654329
vt 0 0.75
vt 0.426777 0.573223
vt 0.01903 0.654329
vt 0.345671 0.51903
vt 0.073223 0.573223
vt 0.25 0.5
vt 0.154329 0.51903
vt 0.75 0.75
vt 0.845671 0.98097
vt 0.75 1
vt 0.926777 0.926777
vt 0.654329 0.98097
vt 0.98097 0.845671
vt 0.573223 0.926777
vt 1 0.75
vt 0.51903 0.845671
vt 0.98097 0.654329
vt 0.5 0.75
vt 0.926777 0.573223
vt 0.51903 0.654329
vt 0.845671 0.51903
vt 0.573223 0.573223
vt 0.75 0.5
vt 0.654329 0.51903
vn 0.9807851 1.6675E-07 0.195090964
vn 0.947174251 1.60734032E-07 0.320719421
vn 0.9807851 1.657011E-07 0.195090964
vn 0.896541238 1.50063755E-07 0.4429602
vn 0.752342463 1.24990379E-07 0.65877223
vn 0.65877223 8.645658E-08 0.7523424
vn 0.442960262 4.37286722E-08 0.8965413
vn 0.320719421 1.64511462E-08 0.947174251
vn 0.06615908 1.71324588E-09 0.9978091
vn -0.06615909 -3.3572598E-09 0.9978091
vn -0.320719451 -1.58670286E-08 0.947174251
vn -0.442960262 -4.66515253E-08 0.8965412
vn -0.65877223 -9.20135648E-08 0.7523424
vn -0.7523424 -1.2957841E-07 0.65877223
vn -0.896541238 -1.4935236E-07 0.442960143
vn -0.947174251 -1.58618079E-07 0.320719421
vn -0.997809 -1.6928864E-07 0.0661590844
vn -0.997809 -1.70000064E-07 -0.06615907
vn -0.947174251 -1.60734032E-07 -0.320719421
vn -0.896541238 -1.50063769E-07 -0.4429602
vn -0.752342463 -1.24990379E-07 -0.6587721
vn -0.6587723 -8.645659E-08 -0.7523424
vn -0.442960262 -4.37286722E-08 -0.8965412
vn -0.3207194 -1.64511427E-08 -0.9471742
vn -0.06615909 -1.71324588E-09 -0.9978091
vn 0.06615909 3.3572598E-09 -0.9978091
vn 0.320719421 1.58670268E-08 -0.947174251
vn 0.4429603 4.66515253E-08 -0.8965413
vn 0.65877223 9.20135648E-08 -0.7523424
vn 0.752342463 1.29578424E-07 -0.6587721
vn 0.896541238 1.4935236E-07 -0.442960143
vn 0.947174251 1.58618079E-07 -0.320719421
vn 0.9807851 1.6675E-07 -0.19509095
vn 0.9807851 1.677989E-07 -0.19509095
vn -3.96286737E-08 0.99999994 0
vn -3.86299277E-08 1 0
vn -4.700324E-08 0.99999994 -1.2532575E-08
vn -7.553617E-08 1 3.3723996E-08
vn 0 0.99999994 0
vn -1.11511454E-07 1 3.74354769E-08
vn 0 1 0
vn -8.86974E-08 1 0
vn 0 0.99999994 0
vn -1.11511454E-07 1 -3.74354769E-08
vn 0 1 0
vn -7.553617E-08 1 -3.3723996E-08
vn 0 0.99999994 0
vn -4.700324E-08 0.99999994 1.2532575E-08
vn 0 1 0
vn -3.86299277E-08 1 0
vn 0 0.99999994 0
vn 3.96286737E-08 -0.99999994 0
vn 0 -0.99999994 0
vn 3.86299277E-08 -1 0
vn 0 -1 0
vn 4.700324E-08 -0.99999994 -1.2532575E-08
vn 0 -0.99999994 0
vn 7.553617E-08 -1 3.3723996E-08
vn 0 -1 0
vn 1.11511454E-07 -1 3.74354769E-08
vn 0 -0.99999994 0
vn 8.86974E-08 -1 0
vn 0 -1 0
vn 1.11511454E-07 -1 -3.74354769E-08
vn 0 -0.99999994 0
vn 7.553617E-08 -1 -3.3723996E-08
vn 3.86299277E-08 -1 0
vn 4.700324E-08 -0.99999994 1.2532575E-08
g submesh_0
f 1/1/1 2/2/2 3/3/3
f 1/1/1 4/4/4 2/2/2
f 4/4/4 5/5/5 2/2/2
f 4/4/4 6/6/6 5/5/5
f 6/6/6 7/7/7 5/5/5
f 6/6/6 8/8/8 7/7/7
f 8/8/8 9/9/9 7/7/7
f 8/8/8 10/10/10 9/9/9
f 10/10/10 11/11/11 9/9/9
f 10/10/10 12/12/12 11/11/11
f 12/12/12 13/13/13 11/11/11
f 12/12/12 14/14/14 13/13/13
f 14/14/14 15/15/15 13/13/13
f 14/14/14 16/16/16 15/15/15
f 16/16/16 17/17/17 15/15/15
f 16/16/16 18/18/18 17/17/17
f 18/18/18 19/19/19 17/17/17
f 18/18/18 20/20/20 19/19/19
f 20/20/20 21/21/21 19/19/19
f 20/20/20 22/22/22 21/21/21
f 22/22/22 23/23/23 21/21/21
f 22/22/22 24/24/24 23/23/23
f 24/24/24 25/25/25 23/23/23
f 24/24/24 26/26/26 25/25/25
f 26/26/26 27/27/27 25/25/25
f 26/26/26 28/28/28 27/27/27
f 28/28/28 29/29/29 27/27/27
f 28/28/28 30/30/30 29/29/29
f 30/30/30 31/31/31 29/29/29
f 30/30/30 32/32/32 31/31/31
f 32/32/32 33/33/33 31/31/31
f 32/32/32 34/34/34 33/33/33
f 35/35/35 36/36/36 37/37/37
f 35/35/35 37/37/37 38/38/38
f 35/35/35 39/39/39 36/36/36
f 35/35/35 38/38/38 40/40/40
f 35/35/35 41/41/41 39/39/39
f 35/35/35 40/40/40 42/42/42
f 35/35/35 43/43/43 41/41/41
f 35/35/35 42/42/42 44/44/44
f 35/35/35 45/45/45 43/43/43
f 35/35/35 44/44/44 46/46/46
f 35/35/35 47/47/47 45/45/45
f 35/35/35 46/46/46 48/48/48
f 35/35/35 49/49/49 47/47/47
f 35/35/35 48/48/48 50/50/50
f 35/35/35 51/51/51 49/49/49
f 35/35/35 50/50/50 51/51/51
f 52/52/52 53/53/53 54/54/54
f 52/52/52 55/55/55 53/53/53
f 52/52/52 54/54/54 56/56/56
f 52/52/52 57/57/57 55/55/55
f 52/52/52 56/56/56 58/58/58
f 52/52/52 59/59/59 57/57/57
f 52/52/52 58/58/58 60/60/60
f 52/52/52 61/61/61 59/59/59
f 52/52/52 60/60/60 62/62/62
f 52/52/52 63/63/63 61/61/61
f 52/52/52 62/62/62 64/64/64
f 52/52/52 65/65/65 63/63/63
f 52/52/52 64/64/64 66/66/66
f 52/52/52 67/67/67 65/65/65
f 52/52/52 66/66/66 68/68/68
f 52/52/52 68/68/68 67/67/67
