# Center pivot hollow cylinder for Unity
# Outer diameter: 1.0
# Inner diameter: 0.7
# Height: 1.0 (Y axis)
# Pivot: center at (0, 0, 0)
o CenterPivotHollowCylinder

# Bottom outer ring
v 0.500000 -0.500000 0.000000
v 0.461940 -0.500000 0.191342
v 0.353553 -0.500000 0.353553
v 0.191342 -0.500000 0.461940
v 0.000000 -0.500000 0.500000
v -0.191342 -0.500000 0.461940
v -0.353553 -0.500000 0.353553
v -0.461940 -0.500000 0.191342
v -0.500000 -0.500000 0.000000
v -0.461940 -0.500000 -0.191342
v -0.353553 -0.500000 -0.353553
v -0.191342 -0.500000 -0.461940
v 0.000000 -0.500000 -0.500000
v 0.191342 -0.500000 -0.461940
v 0.353553 -0.500000 -0.353553
v 0.461940 -0.500000 -0.191342

# Top outer ring
v 0.500000 0.500000 0.000000
v 0.461940 0.500000 0.191342
v 0.353553 0.500000 0.353553
v 0.191342 0.500000 0.461940
v 0.000000 0.500000 0.500000
v -0.191342 0.500000 0.461940
v -0.353553 0.500000 0.353553
v -0.461940 0.500000 0.191342
v -0.500000 0.500000 0.000000
v -0.461940 0.500000 -0.191342
v -0.353553 0.500000 -0.353553
v -0.191342 0.500000 -0.461940
v 0.000000 0.500000 -0.500000
v 0.191342 0.500000 -0.461940
v 0.353553 0.500000 -0.353553
v 0.461940 0.500000 -0.191342

# Bottom inner ring
v 0.350000 -0.500000 0.000000
v 0.323358 -0.500000 0.133939
v 0.247487 -0.500000 0.247487
v 0.133939 -0.500000 0.323358
v 0.000000 -0.500000 0.350000
v -0.133939 -0.500000 0.323358
v -0.247487 -0.500000 0.247487
v -0.323358 -0.500000 0.133939
v -0.350000 -0.500000 0.000000
v -0.323358 -0.500000 -0.133939
v -0.247487 -0.500000 -0.247487
v -0.133939 -0.500000 -0.323358
v 0.000000 -0.500000 -0.350000
v 0.133939 -0.500000 -0.323358
v 0.247487 -0.500000 -0.247487
v 0.323358 -0.500000 -0.133939

# Top inner ring
v 0.350000 0.500000 0.000000
v 0.323358 0.500000 0.133939
v 0.247487 0.500000 0.247487
v 0.133939 0.500000 0.323358
v 0.000000 0.500000 0.350000
v -0.133939 0.500000 0.323358
v -0.247487 0.500000 0.247487
v -0.323358 0.500000 0.133939
v -0.350000 0.500000 0.000000
v -0.323358 0.500000 -0.133939
v -0.247487 0.500000 -0.247487
v -0.133939 0.500000 -0.323358
v 0.000000 0.500000 -0.350000
v 0.133939 0.500000 -0.323358
v 0.247487 0.500000 -0.247487
v 0.323358 0.500000 -0.133939

g OuterWall
s 1
f 1 17 18 2
f 2 18 19 3
f 3 19 20 4
f 4 20 21 5
f 5 21 22 6
f 6 22 23 7
f 7 23 24 8
f 8 24 25 9
f 9 25 26 10
f 10 26 27 11
f 11 27 28 12
f 12 28 29 13
f 13 29 30 14
f 14 30 31 15
f 15 31 32 16
f 16 32 17 1

g InnerWall
s 2
f 33 34 50 49
f 34 35 51 50
f 35 36 52 51
f 36 37 53 52
f 37 38 54 53
f 38 39 55 54
f 39 40 56 55
f 40 41 57 56
f 41 42 58 57
f 42 43 59 58
f 43 44 60 59
f 44 45 61 60
f 45 46 62 61
f 46 47 63 62
f 47 48 64 63
f 48 33 49 64

g TopRing
s off
f 17 49 50 18
f 18 50 51 19
f 19 51 52 20
f 20 52 53 21
f 21 53 54 22
f 22 54 55 23
f 23 55 56 24
f 24 56 57 25
f 25 57 58 26
f 26 58 59 27
f 27 59 60 28
f 28 60 61 29
f 29 61 62 30
f 30 62 63 31
f 31 63 64 32
f 32 64 49 17

g BottomRing
s off
f 1 2 34 33
f 2 3 35 34
f 3 4 36 35
f 4 5 37 36
f 5 6 38 37
f 6 7 39 38
f 7 8 40 39
f 8 9 41 40
f 9 10 42 41
f 10 11 43 42
f 11 12 44 43
f 12 13 45 44
f 13 14 46 45
f 14 15 47 46
f 15 16 48 47
f 16 1 33 48
