# Exported by MeshTransformEditorWindow
v -0.0174864382 0.033275 -0.05791786
v -0.04141516 0.033275 -0.04410257
v -0.04141516 -0.033275 -0.04410257
v -0.0174864382 -0.033275 -0.05791786
v -0.0523945764 -0.033275 -0.0302500017
v 0 0.033275 -0.0605000034
v -0.0523945764 0.033275 -0.0302500017
v 0 -0.033275 -0.0605000034
v -0.0589014739 -0.033275 -0.0138151757
v 0.0174864382 0.033275 -0.05791786
v -0.0589014739 0.033275 -0.0138151757
v 0.0174864382 -0.033275 -0.05791786
v -0.0589014739 -0.033275 0.0138151757
v 0.04141516 0.033275 -0.04410257
v -0.0589014739 0.033275 0.0138151757
v 0.04141516 -0.033275 -0.04410257
v -0.0523945764 -0.033275 0.0302500017
v 0.0523945764 0.033275 -0.0302500017
v -0.0523945764 0.033275 0.0302500017
v 0.0523945764 -0.033275 -0.0302500017
v -0.04141516 -0.033275 0.04410257
v 0.0589014739 0.033275 -0.0138151757
v -0.04141516 0.033275 0.04410257
v 0.0589014739 -0.033275 -0.0138151757
v -0.0174864382 -0.033275 0.05791786
v 0.0589014739 0.033275 0.0138151757
v -0.0174864382 0.033275 0.05791786
v 0.0589014739 -0.033275 0.0138151757
v 0 -0.033275 0.0605000034
v 0.0523945764 0.033275 0.0302500017
v 0 0.033275 0.0605000034
v 0.0523945764 -0.033275 0.0302500017
v 0.0174864382 -0.033275 0.05791786
v 0.04141516 0.033275 0.04410257
v 0.0174864382 0.033275 0.05791786
v 0.04141516 -0.033275 0.04410257
v -0.0349728763 0.033275 -0.115835607
v -0.0828302 -0.033275 -0.08820525
v -0.0828302 0.033275 -0.08820525
v -0.0349728763 -0.033275 -0.115835607
v -0.08383123 -0.033275 -0.0484000035
v 0 0.033275 -0.09680001
v -0.08383123 0.033275 -0.0484000035
v 0 -0.033275 -0.09680001
v -0.117803067 -0.033275 -0.02763047
v 0.0349728763 0.033275 -0.115835607
v -0.117803067 0.033275 -0.02763047
v 0.0349728763 -0.033275 -0.115835607
v -0.117803067 -0.033275 0.02763047
v 0.0828302 0.033275 -0.08820525
v -0.117803067 0.033275 0.02763047
v 0.0828302 -0.033275 -0.08820525
v -0.08383123 -0.033275 0.0484000035
v 0.08383123 0.033275 -0.0484000035
v -0.08383123 0.033275 0.0484000035
v 0.08383123 -0.033275 -0.0484000035
v -0.0828302 -0.033275 0.08820525
v 0.117803067 0.033275 -0.02763047
v -0.0828302 0.033275 0.08820525
v 0.117803067 -0.033275 -0.02763047
v -0.0349728763 -0.033275 0.115835607
v 0.117803067 0.033275 0.02763047
v -0.0349728763 0.033275 0.115835607
v 0.117803067 -0.033275 0.02763047
v 0 -0.033275 0.09680001
v 0.08383123 0.033275 0.0484000035
v 0 0.033275 0.09680001
v 0.08383123 -0.033275 0.0484000035
v 0.0349728763 -0.033275 0.115835607
v 0.0828302 0.033275 0.08820525
v 0.0349728763 0.033275 0.115835607
v 0.0828302 -0.033275 0.08820525
v -0.0349728763 -0.033275 -0.115835607
v -0.04141516 -0.033275 -0.04410257
v -0.0828302 -0.033275 -0.08820525
v -0.0174864382 -0.033275 -0.05791786
v -0.0523945764 -0.033275 -0.0302500017
v 0 -0.033275 -0.09680001
v -0.08383123 -0.033275 -0.0484000035
v 0 -0.033275 -0.0605000034
v -0.0589014739 -0.033275 -0.0138151757
v 0.0349728763 -0.033275 -0.115835607
v -0.117803067 -0.033275 -0.02763047
v 0.0174864382 -0.033275 -0.05791786
v -0.0589014739 -0.033275 0.0138151757
v 0.0828302 -0.033275 -0.08820525
v -0.117803067 -0.033275 0.02763047
v 0.04141516 -0.033275 -0.04410257
v -0.0523945764 -0.033275 0.0302500017
v 0.08383123 -0.033275 -0.0484000035
v -0.08383123 -0.033275 0.0484000035
v 0.0523945764 -0.033275 -0.0302500017
v -0.04141516 -0.033275 0.04410257
v 0.117803067 -0.033275 -0.02763047
v -0.0828302 -0.033275 0.08820525
v 0.0589014739 -0.033275 -0.0138151757
v -0.0174864382 -0.033275 0.05791786
v 0.117803067 -0.033275 0.02763047
v -0.0349728763 -0.033275 0.115835607
v 0.0589014739 -0.033275 0.0138151757
v 0 -0.033275 0.0605000034
v 0.08383123 -0.033275 0.0484000035
v 0 -0.033275 0.09680001
v 0.0523945764 -0.033275 0.0302500017
v 0.0174864382 -0.033275 0.05791786
v 0.0828302 -0.033275 0.08820525
v 0.0349728763 -0.033275 0.115835607
v 0.04141516 -0.033275 0.04410257
v -0.0349728763 0.033275 -0.115835607
v -0.0828302 0.033275 -0.08820525
v -0.04141516 0.033275 -0.04410257
v -0.0174864382 0.033275 -0.05791786
v -0.0523945764 0.033275 -0.0302500017
v 0 0.033275 -0.09680001
v -0.08383123 0.033275 -0.0484000035
v 0 0.033275 -0.0605000034
v -0.0589014739 0.033275 -0.0138151757
v 0.0349728763 0.033275 -0.115835607
v -0.117803067 0.033275 -0.02763047
v 0.0174864382 0.033275 -0.05791786
v -0.0589014739 0.033275 0.0138151757
v 0.0828302 0.033275 -0.08820525
v -0.117803067 0.033275 0.02763047
v 0.04141516 0.033275 -0.04410257
v -0.0523945764 0.033275 0.0302500017
v 0.08383123 0.033275 -0.0484000035
v -0.08383123 0.033275 0.0484000035
v 0.0523945764 0.033275 -0.0302500017
v -0.04141516 0.033275 0.04410257
v 0.117803067 0.033275 -0.02763047
v -0.0828302 0.033275 0.08820525
v 0.0589014739 0.033275 -0.0138151757
v -0.0174864382 0.033275 0.05791786
v 0.117803067 0.033275 0.02763047
v -0.0349728763 0.033275 0.115835607
v 0.0589014739 0.033275 0.0138151757
v 0 0.033275 0.0605000034
v 0.08383123 0.033275 0.0484000035
v 0 0.033275 0.09680001
v 0.0523945764 0.033275 0.0302500017
v 0.0174864382 0.033275 0.05791786
v 0.0828302 0.033275 0.08820525
v 0.0349728763 0.033275 0.115835607
v 0.04141516 0.033275 0.04410257
vn 0.419676572 0 0.9076736
vn 0.670940936 0 0.741510749
vn 0.5762311 0 0.8172868
vn 0.306696355 0 0.951807439
vn 0.8403978 0 0.5419701
vn 0.0491623245 0 0.99879086
vn 0.8895615 0 0.456815571
vn -0.0491623245 0 0.99879086
vn 0.9776383 0 0.210293949
vn -0.306696355 0 0.951807439
vn 0.9959069 0 0.09038589
vn -0.419676572 0 0.9076736
vn 0.9959069 0 -0.09038589
vn -0.5762311 0 0.8172868
vn 0.9776383 0 -0.210293949
vn -0.670940936 0 0.741510749
vn 0.8895614 0 -0.456815571
vn -0.8403978 0 0.5419701
vn 0.8403978 0 -0.541970134
vn -0.8895615 0 0.456815571
vn 0.670940936 0 -0.741510749
vn -0.9776383 0 0.210293949
vn 0.5762311 0 -0.8172868
vn -0.9959069 0 0.09038589
vn 0.419676572 0 -0.9076736
vn -0.9959069 0 -0.09038589
vn 0.306696355 0 -0.951807439
vn -0.9776383 0 -0.210293949
vn 0.0491623245 0 -0.99879086
vn -0.8895614 0 -0.456815571
vn -0.0491623245 0 -0.99879086
vn -0.8403978 0 -0.541970134
vn -0.306696355 0 -0.951807439
vn -0.670940936 0 -0.741510749
vn -0.419676572 0 -0.9076736
vn -0.5762311 0 -0.8172868
vn -0.2671169 0 -0.9636641
vn -0.7009983 0 -0.7131629
vn -0.906786 0 -0.421591163
vn 0.0882835463 0 -0.996095359
vn -0.941373348 0 -0.337366641
vn 0.178517625 0 -0.983936667
vn -0.7628546 0 -0.64657
vn -0.178517625 0 -0.983936667
vn -0.8185016 0 -0.5745042
vn -0.0882835463 0 -0.996095359
vn -0.9681163 0 -0.250501454
vn 0.2671169 0 -0.9636641
vn -0.9681163 0 0.250501454
vn 0.7009983 0 -0.7131629
vn -0.8185016 0 0.5745042
vn 0.906786 0 -0.421591163
vn -0.762854636 0 0.646569967
vn 0.941373348 0 -0.337366641
vn -0.941373348 0 0.33736667
vn 0.7628546 0 -0.64657
vn -0.906786 0 0.421591133
vn 0.8185016 0 -0.5745042
vn -0.7009983 0 0.7131629
vn 0.9681163 0 -0.250501454
vn -0.2671169 0 0.9636641
vn 0.9681163 0 0.250501454
vn 0.0882835463 0 0.996095359
vn 0.8185016 0 0.5745042
vn 0.178517625 0 0.983936667
vn 0.762854636 0 0.646569967
vn -0.178517625 0 0.983936667
vn 0.941373348 0 0.33736667
vn -0.0882835463 0 0.996095359
vn 0.906786 0 0.421591133
vn 0.2671169 0 0.9636641
vn 0.7009983 0 0.7131629
vn 0 -0.99999994 0
vn 0 -1 0
vn 0 -1 0
vn 0 -1 0
vn 0 -1 0
vn 0 -0.99999994 0
vn 0 -1 0
vn 0 -1 0
vn 0 -1 0
vn 0 -1 0
vn 0 -0.99999994 0
vn 0 -1 0
vn 0 -0.99999994 0
vn 0 -1 0
vn 0 -0.99999994 0
vn 0 -1 0
vn 0 -1 0
vn 0 -1 0
vn 0 -1 0
vn 0 -1 0
vn 0 -1 0
vn 0 -0.99999994 0
vn 0 -1 0
vn 0 -0.99999994 0
vn 0 -1 0
vn 0 -0.99999994 0
vn 0 -1 0
vn 0 -1 0
vn 0 -1 0
vn 0 -1 0
vn 0 -0.99999994 0
vn 0 -1 0
vn 0 -1 0
vn 0 -1 0
vn 0 -0.99999994 0
vn 0 -1 0
vn 0 0.99999994 0
vn 0 1 0
vn 0 1 0
vn 0 1 0
vn 0 1 0
vn 0 0.99999994 0
vn 0 1 0
vn 0 1 0
vn 0 1 0
vn 0 1 0
vn 0 0.99999994 0
vn 0 1 0
vn 0 0.99999994 0
vn 0 1 0
vn 0 0.99999994 0
vn 0 1 0
vn 0 1 0
vn 0 1 0
vn 0 1 0
vn 0 1 0
vn 0 1 0
vn 0 0.99999994 0
vn 0 1 0
vn 0 0.99999994 0
vn 0 1 0
vn 0 0.99999994 0
vn 0 1 0
vn 0 1 0
vn 0 1 0
vn 0 1 0
vn 0 0.99999994 0
vn 0 1 0
vn 0 1 0
vn 0 1 0
vn 0 0.99999994 0
vn 0 1 0
g submesh_0
f 1//1 2//2 3//3
f 1//1 3//3 4//4
f 2//2 5//5 3//3
f 6//6 1//1 4//4
f 2//2 7//7 5//5
f 6//6 4//4 8//8
f 7//7 9//9 5//5
f 10//10 6//6 8//8
f 7//7 11//11 9//9
f 10//10 8//8 12//12
f 11//11 13//13 9//9
f 14//14 10//10 12//12
f 11//11 15//15 13//13
f 14//14 12//12 16//16
f 15//15 17//17 13//13
f 18//18 14//14 16//16
f 15//15 19//19 17//17
f 18//18 16//16 20//20
f 19//19 21//21 17//17
f 22//22 18//18 20//20
f 19//19 23//23 21//21
f 22//22 20//20 24//24
f 23//23 25//25 21//21
f 26//26 22//22 24//24
f 23//23 27//27 25//25
f 26//26 24//24 28//28
f 27//27 29//29 25//25
f 30//30 26//26 28//28
f 27//27 31//31 29//29
f 30//30 28//28 32//32
f 31//31 33//33 29//29
f 34//34 30//30 32//32
f 31//31 35//35 33//33
f 34//34 32//32 36//36
f 35//35 34//34 36//36
f 35//35 36//36 33//33
f 37//37 38//38 39//39
f 37//37 40//40 38//38
f 39//39 38//38 41//41
f 42//42 40//40 37//37
f 39//39 41//41 43//43
f 42//42 44//44 40//40
f 43//43 41//41 45//45
f 46//46 44//44 42//42
f 43//43 45//45 47//47
f 46//46 48//48 44//44
f 47//47 45//45 49//49
f 50//50 48//48 46//46
f 47//47 49//49 51//51
f 50//50 52//52 48//48
f 51//51 49//49 53//53
f 54//54 52//52 50//50
f 51//51 53//53 55//55
f 54//54 56//56 52//52
f 55//55 53//53 57//57
f 58//58 56//56 54//54
f 55//55 57//57 59//59
f 58//58 60//60 56//56
f 59//59 57//57 61//61
f 62//62 60//60 58//58
f 59//59 61//61 63//63
f 62//62 64//64 60//60
f 63//63 61//61 65//65
f 66//66 64//64 62//62
f 63//63 65//65 67//67
f 66//66 68//68 64//64
f 67//67 65//65 69//69
f 70//70 68//68 66//66
f 67//67 69//69 71//71
f 70//70 72//72 68//68
f 71//71 69//69 72//72
f 71//71 72//72 70//70
f 73//73 74//74 75//75
f 73//73 76//76 74//74
f 75//75 74//74 77//77
f 78//78 76//76 73//73
f 75//75 77//77 79//79
f 78//78 80//80 76//76
f 79//79 77//77 81//81
f 82//82 80//80 78//78
f 79//79 81//81 83//83
f 82//82 84//84 80//80
f 83//83 81//81 85//85
f 86//86 84//84 82//82
f 83//83 85//85 87//87
f 86//86 88//88 84//84
f 87//87 85//85 89//89
f 90//90 88//88 86//86
f 87//87 89//89 91//91
f 90//90 92//92 88//88
f 91//91 89//89 93//93
f 94//94 92//92 90//90
f 91//91 93//93 95//95
f 94//94 96//96 92//92
f 95//95 93//93 97//97
f 98//98 96//96 94//94
f 95//95 97//97 99//99
f 98//98 100//100 96//96
f 99//99 97//97 101//101
f 102//102 100//100 98//98
f 99//99 101//101 103//103
f 102//102 104//104 100//100
f 103//103 101//101 105//105
f 106//106 104//104 102//102
f 103//103 105//105 107//107
f 106//106 108//108 104//104
f 107//107 105//105 108//108
f 107//107 108//108 106//106
f 109//109 110//110 111//111
f 109//109 111//111 112//112
f 110//110 113//113 111//111
f 114//114 109//109 112//112
f 110//110 115//115 113//113
f 114//114 112//112 116//116
f 115//115 117//117 113//113
f 118//118 114//114 116//116
f 115//115 119//119 117//117
f 118//118 116//116 120//120
f 119//119 121//121 117//117
f 122//122 118//118 120//120
f 119//119 123//123 121//121
f 122//122 120//120 124//124
f 123//123 125//125 121//121
f 126//126 122//122 124//124
f 123//123 127//127 125//125
f 126//126 124//124 128//128
f 127//127 129//129 125//125
f 130//130 126//126 128//128
f 127//127 131//131 129//129
f 130//130 128//128 132//132
f 131//131 133//133 129//129
f 134//134 130//130 132//132
f 131//131 135//135 133//133
f 134//134 132//132 136//136
f 135//135 137//137 133//133
f 138//138 134//134 136//136
f 135//135 139//139 137//137
f 138//138 136//136 140//140
f 139//139 141//141 137//137
f 142//142 138//138 140//140
f 139//139 143//143 141//141
f 142//142 140//140 144//144
f 143//143 142//142 144//144
f 143//143 144//144 141//141
