o Conveyor_belt_2F_Top
v -1.5 0.13 0.255
v -1.5 0.13 -0.255
v -0.5 0.806 0.255
v -0.5 0.806 -0.255
v 0.5 0.806 0.255
v 0.5 0.806 -0.255
v 1.5 0.13 0.255
v 1.5 0.13 -0.255
vn -0.5600419 0.8284643 0
vn -0.5600419 0.8284643 0
vn -0.2928615 0.9561549 0
vn -0.2928615 0.9561549 0
vn 0.2928615 0.9561549 0
vn 0.2928615 0.9561549 0
vn 0.5600419 0.8284643 0
vn 0.5600419 0.8284643 0
vt 0 0
vt 1 0
vt 0 0.3535487
vt 1 0.3535487
vt 0 0.6464513
vt 1 0.6464513
vt 0 1
vt 1 1
f 1/1/1 3/3/3 4/4/4
f 1/1/1 4/4/4 2/2/2
f 3/3/3 5/5/5 6/6/6
f 3/3/3 6/6/6 4/4/4
f 5/5/5 7/7/7 8/8/8
f 5/5/5 8/8/8 6/6/6
