# CampFire_P: 120 exported vertices, Y up, meters
o CampFire_P
v 0.16952058 0 0.029099364
v 0.132247131 0 0.0952246101
v 0.0944777173 0 0.0677045524
v 0.114180869 0 -0.0260626379
v 0.157326928 0 -0.0484130689
v 0.160522548 0.0414 0.0338755104
v 0.129873882 0.0443279377 0.0804144067
v 0.102503083 0.038963096 0.0520361303
v 0.120997499 0.0405002821 -0.0195628828
v 0.154361935 0.0445857336 -0.0301276689
v 0.0434081479 0 0.169003932
v -0.0206274077 0 0.156266392
v 0.00383440402 0 0.107332202
v 0.0961544938 0 0.082953185
v 0.112830097 0 0.121050413
v 0.0379167415 0.0467003512 0.161397266
v -0.00691731503 0.0443127639 0.147637051
v 0.0186289916 0.0405625702 0.108727276
v 0.0899553824 0.04607142 0.0934764221
v 0.0961876904 0.0452366328 0.125612009
v -0.136398002 0 0.109320415
v -0.144373324 0 0.0519965344
v -0.0775771844 0 0.0685551022
v -0.0170170414 0 0.137501889
v -0.0585134848 0 0.157697424
v -0.129234016 0.0404881183 0.10341448
v -0.129278458 0.0355879953 0.0620848795
v -0.0748375859 0.0369920258 0.0799208818
v -0.0317701464 0.0407235831 0.134291185
v -0.0691464847 0.0362138011 0.14480024
v -0.15496901 0 -0.0749622975
v -0.108898022 0 -0.0999033289
v -0.101417917 0 -0.017283511
v -0.136113781 0 0.0578927745
v -0.171156099 0 0.0187907148
v -0.147775609 0.0447429714 -0.0680646481
v -0.112107421 0.0409563693 -0.0802050304
v -0.109695687 0.0465187013 -0.0129175017
v -0.138756109 0.0456758097 0.0412900658
v -0.163621553 0.040815011 0.00411758233
v -0.00240799926 0 -0.168142573
v 0.0297079402 0 -0.135148371
v -0.0505206057 0 -0.0904139868
v -0.118785042 0 -0.0972886388
v -0.0919159597 0 -0.148695859
v -0.0080692585 0.0383724602 -0.158574987
v 0.0102527516 0.0398863444 -0.129832094
v -0.0554169796 0.0439098651 -0.0972470369
v -0.104261025 0.0390472301 -0.106412372
v -0.0765673256 0.0390708497 -0.147228153
v 0.146786057 0 -0.0763337097
v 0.118091851 0 -0.0462222636
v 0.0392165515 0 -0.100107863
v 0.0327690915 0 -0.15425789
v 0.0975131602 0 -0.144679652
v 0.134153374 0.0365246705 -0.0791013283
v 0.106424824 0.0414851284 -0.060398509
v 0.0461436519 0.0407334422 -0.105776393
v 0.0470184415 0.036398608 -0.14471836
v 0.100541668 0.0407581493 -0.132013908
v 0.103837313 0.033 0.00436606227
v 0.0849366689 0.0150018029 0.0165461962
v 0.0827991766 0.0218765024 0.0444333748
v 0.100378778 0.0441234976 0.0494884651
v 0.113381061 0.0509981971 0.0247255041
v -0.0267176571 0.144 -0.0301164473
v -0.0433502236 0.128161587 -0.0193979294
v -0.0452312168 0.134211322 0.00514278775
v -0.029761168 0.153788678 0.0095912672
v -0.0183191589 0.159838413 -0.0122001385
v 0.103837313 0.033 0.00436606227
v 0.0849366689 0.0150018029 0.0165461962
v 0.0827991766 0.0218765024 0.0444333748
v 0.100378778 0.0441234976 0.0494884651
v 0.113381061 0.0509981971 0.0247255041
v -0.0267176571 0.144 -0.0301164473
v -0.0433502236 0.128161587 -0.0193979294
v -0.0452312168 0.134211322 0.00514278775
v -0.029761168 0.153788678 0.0095912672
v -0.0183191589 0.159838413 -0.0122001385
v -0.0556997772 0.033 0.0877427195
v -0.0560546574 0.0159027272 0.0645676808
v -0.0794207566 0.0224333043 0.0490466605
v -0.0935069199 0.0435666957 0.0626291812
v -0.0788465483 0.0500972728 0.0865446609
v 0.039440437 0.158 -0.00807994614
v 0.0391281424 0.1429544 -0.0284739802
v 0.0185659751 0.148701308 -0.042132478
v 0.00617015143 0.167298692 -0.0301798598
v 0.0190712784 0.1730456 -0.00913423772
v -0.0556997772 0.033 0.0877427195
v -0.0560546574 0.0159027272 0.0645676808
v -0.0794207566 0.0224333043 0.0490466605
v -0.0935069199 0.0435666957 0.0626291812
v -0.0788465483 0.0500972728 0.0865446609
v 0.039440437 0.158 -0.00807994614
v 0.0391281424 0.1429544 -0.0284739802
v 0.0185659751 0.148701308 -0.042132478
v 0.00617015143 0.167298692 -0.0301798598
v 0.0190712784 0.1730456 -0.00913423772
v -0.0481375355 0.033 -0.0921087818
v -0.0276766683 0.0167660449 -0.0799705482
v -0.00263347699 0.022966864 -0.0927734193
v -0.00761680073 0.043033136 -0.112824262
v -0.0357398555 0.0492339551 -0.112413494
v -0.0127227799 0.172 0.0381963934
v 0.00528278324 0.15771412 0.048878039
v 0.0273207916 0.16317084 0.0376115124
v 0.0229354667 0.18082916 0.0199667705
v -0.00181282149 0.18628588 0.0203282468
v -0.0481375355 0.033 -0.0921087818
v -0.0276766683 0.0167660449 -0.0799705482
v -0.00263347699 0.022966864 -0.0927734193
v -0.00761680073 0.043033136 -0.112824262
v -0.0357398555 0.0492339551 -0.112413494
v -0.0127227799 0.172 0.0381963934
v 0.00528278324 0.15771412 0.048878039
v 0.0273207916 0.16317084 0.0376115124
v 0.0229354667 0.18082916 0.0199667705
v -0.00181282149 0.18628588 0.0203282468
vt 0.959960938 0.75
vt 0.814881498 0.550315282
vt 0.580138033 0.626588057
vt 0.580138033 0.873411943
vt 0.814881498 0.949684718
vt 0.842309957 0.740738111
vt 0.769716765 0.659345933
vt 0.669875674 0.703234595
vt 0.680763678 0.811751457
vt 0.787333925 0.834929905
vt 0.955348288 0.706231564
vt 0.771829854 0.541176982
vt 0.558143304 0.664708713
vt 0.609596187 0.906110104
vt 0.855082367 0.931772637
vt 0.838351259 0.721698662
vt 0.750385868 0.657227365
vt 0.661887221 0.720964697
vt 0.695157439 0.824827831
vt 0.804218213 0.825281446
vt 0.94171301 0.664386233
vt 0.727819047 0.541213984
vt 0.544578407 0.706576913
vt 0.645223427 0.931949072
vt 0.890666109 0.905873798
vt 0.830510568 0.703902722
vt 0.731038017 0.659185057
vt 0.657770281 0.739970557
vt 0.711960882 0.834616406
vt 0.818720251 0.812325258
vt 0.919654213 0.626302614
vt 0.68478283 0.550424661
vt 0.540039359 0.750353043
vt 0.685454357 0.949793532
vt 0.92006924 0.873126151
vt 0.819132391 0.688132212
vt 0.71252332 0.665132991
vt 0.657705747 0.759417092
vt 0.730435695 0.840687092
vt 0.830202847 0.796630613
vt 0.890141121 0.593654032
vt 0.644612137 0.568404313
vt 0.544725598 0.794113661
vt 0.728521306 0.958859429
vt 0.941999839 0.834968565
vt 0.804716662 0.675080059
vt 0.695655281 0.674809827
vt 0.661696454 0.778449858
vt 0.749770127 0.842773153
vt 0.838161477 0.778887103
vt 0.854470484 0.567875006
vt 0.609071993 0.594362948
vt 0.558431218 0.835936005
vt 0.772531989 0.958748425
vt 0.955494317 0.793077616
vt 0.787896784 0.665319752
vt 0.681175048 0.687790381
vt 0.669567057 0.796232589
vt 0.769114659 0.840782931
vt 0.842246452 0.759874348
vt 0.444643287 0.953125
vt 0.254906873 0.953125
vt 0.0583893273 0.953125
vt 0.126671218 0.953125
vt 0.365389294 0.953125
vt 0.444643287 0.046875
vt 0.254906873 0.046875
vt 0.0583893273 0.046875
vt 0.126671218 0.046875
vt 0.365389294 0.046875
vt 0.9453125 0.244140625
vt 0.810354882 0.0583873992
vt 0.591988868 0.129338818
vt 0.591988868 0.358942432
vt 0.810354882 0.429893851
vt 0.9453125 0.244140625
vt 0.810354882 0.0583873992
vt 0.591988868 0.129338818
vt 0.591988868 0.358942432
vt 0.810354882 0.429893851
vt 0.432010664 0.953125
vt 0.220481004 0.953125
vt 0.0497455933 0.953125
vt 0.155754967 0.953125
vt 0.392007773 0.953125
vt 0.432010664 0.046875
vt 0.220481004 0.046875
vt 0.0497455933 0.046875
vt 0.155754967 0.046875
vt 0.392007773 0.046875
vt 0.9453125 0.244140625
vt 0.810354882 0.0583873992
vt 0.591988868 0.129338818
vt 0.591988868 0.358942432
vt 0.810354882 0.429893851
vt 0.9453125 0.244140625
vt 0.810354882 0.0583873992
vt 0.591988868 0.129338818
vt 0.591988868 0.358942432
vt 0.810354882 0.429893851
vt 0.414130588 0.953125
vt 0.18690618 0.953125
vt 0.0468752872 0.953125
vt 0.187555843 0.953125
vt 0.414532102 0.953125
vt 0.414130588 0.046875
vt 0.18690618 0.046875
vt 0.0468752872 0.046875
vt 0.187555843 0.046875
vt 0.414532102 0.046875
vt 0.9453125 0.244140625
vt 0.810354882 0.0583873992
vt 0.591988868 0.129338818
vt 0.591988868 0.358942432
vt 0.810354882 0.429893851
vt 0.9453125 0.244140625
vt 0.810354882 0.0583873992
vt 0.591988868 0.129338818
vt 0.591988868 0.358942432
vt 0.810354882 0.429893851
vn 0.802003314 -0.581238194 0.13766934
vn 0.203219494 -0.721722565 0.661678454
vn -0.753227232 -0.624672527 0.205992648
vn -0.641412598 -0.624672527 -0.44539209
vn 0.41224735 -0.721722565 -0.556029371
vn 0.617240613 0.772843984 0.147398107
vn 0.0745803394 0.877648957 0.473466029
vn -0.594146644 0.796291211 0.113622504
vn -0.445621568 0.815979196 -0.368238197
vn 0.352376297 0.862351801 -0.363566111
vn 0.174765877 -0.586207749 0.791086192
vn -0.584707036 -0.740754668 0.330757017
vn -0.472223093 -0.600816949 -0.644999492
vn 0.199130469 -0.655930915 -0.728080828
vn 0.672154405 -0.69038479 0.267539337
vn 0.0937221416 0.780590514 0.61797622
vn -0.437887509 0.88378554 0.164856448
vn -0.332948943 0.781053627 -0.528299378
vn 0.194745451 0.839378721 -0.507461891
vn 0.478702355 0.840311149 0.254403672
vn -0.66073163 -0.60097292 0.449739105
vn -0.439684451 -0.740672759 -0.508017173
vn 0.429370901 -0.586128646 -0.687090852
vn 0.72268754 -0.690660391 -0.0266635268
vn -0.0562954048 -0.655659707 0.752954963
vn -0.524417138 0.79556803 0.3034109
vn -0.255430474 0.878105538 -0.404581186
vn 0.370572901 0.773002037 -0.514920941
vn 0.505885252 0.861564927 0.0422609478
vn -0.0951686348 0.816874822 0.568909884
vn -0.64066046 -0.62489691 -0.446159195
vn 0.413659481 -0.721508524 -0.555257853
vn 0.801853807 -0.581238513 0.138536142
vn 0.201629134 -0.721935806 0.661932311
vn -0.753678433 -0.624448629 0.205018851
vn -0.444886459 0.816159867 -0.368726335
vn 0.353336088 0.862193527 -0.363009546
vn 0.617043327 0.772874921 0.148060422
vn 0.0733895368 0.877742561 0.473478587
vn -0.594480358 0.796144314 0.112904097
vn 0.200233287 -0.656202362 -0.727533567
vn 0.671881606 -0.690108986 0.268932509
vn 0.17387571 -0.586287482 0.791223247
vn -0.585479838 -0.74083531 0.329205715
vn -0.471519977 -0.600661571 -0.64565826
vn 0.195528116 0.839567352 -0.506848516
vn 0.478511261 0.840122831 0.255383248
vn 0.0929980584 0.780683204 0.617968524
vn -0.438314493 0.883787073 0.163709544
vn -0.332405946 0.780959094 -0.528780843
vn 0.722474804 -0.690935783 -0.0252566997
vn -0.0575152638 -0.655388743 0.753098659
vn -0.661172656 -0.601129484 0.4488809
vn -0.438435085 -0.740589586 -0.509216792
vn 0.430162442 -0.586050175 -0.686662557
vn 0.505524451 0.861724759 0.0433066923
vn -0.0960471731 0.816693421 0.569022669
vn -0.524634946 0.795713492 0.302651967
vn -0.254519933 0.878014563 -0.405351737
vn 0.371156559 0.772969078 -0.514549913
vn 0.276355649 0 -0.961055438
vn -0.495099199 -0.734620292 -0.463907114
vn -0.582343781 -0.454020309 0.674345074
vn 0.135190949 0.454020309 0.88067529
vn 0.665896383 0.734620292 -0.130057812
vn 0.276355649 0 -0.961055438
vn -0.495099199 -0.734620292 -0.463907114
vn -0.582343781 -0.454020309 0.674345074
vn 0.135190949 0.454020309 0.88067529
vn 0.665896383 0.734620292 -0.130057812
vn 0.742343714 -0.6351054 0.213464146
vn 0.742343714 -0.6351054 0.213464146
vn 0.742343714 -0.6351054 0.213464146
vn 0.742343714 -0.6351054 0.213464146
vn 0.742343714 -0.6351054 0.213464146
vn -0.742343714 0.6351054 -0.213464146
vn -0.742343714 0.6351054 -0.213464146
vn -0.742343714 0.6351054 -0.213464146
vn -0.742343714 0.6351054 -0.213464146
vn -0.742343714 0.6351054 -0.213464146
vn 0.6941206 -0 0.719858731
vn 0.679635694 -0.69784787 -0.226061217
vn -0.274082641 -0.431293703 -0.859572247
vn -0.849028082 0.431293703 -0.305183647
vn -0.250645571 0.69784787 0.67095838
vn 0.6941206 -0 0.719858731
vn 0.679635694 -0.69784787 -0.226061217
vn -0.274082641 -0.431293703 -0.859572247
vn -0.849028082 0.431293703 -0.305183647
vn -0.250645571 0.69784787 0.67095838
vn -0.528204028 -0.679408031 0.509318399
vn -0.528204028 -0.679408031 0.509318399
vn -0.528204028 -0.679408031 0.509318399
vn -0.528204028 -0.679408031 0.509318399
vn -0.528204028 -0.679408031 0.509318399
vn 0.528204028 0.679408031 -0.509318399
vn 0.528204028 0.679408031 -0.509318399
vn 0.528204028 0.679408031 -0.509318399
vn 0.528204028 0.679408031 -0.509318399
vn 0.528204028 0.679408031 -0.509318399
vn -0.970476248 0 0.241196707
vn -0.135338813 -0.662610412 0.736634813
vn 0.886832262 -0.409515756 0.214068645
vn 0.683431293 0.409515756 -0.604333114
vn -0.464448494 0.662610412 -0.58756705
vn -0.970476248 0 0.241196707
vn -0.135338813 -0.662610412 0.736634813
vn 0.886832262 -0.409515756 0.214068645
vn 0.683431293 0.409515756 -0.604333114
vn -0.464448494 0.662610412 -0.58756705
vn -0.168044114 -0.717353072 -0.67614033
vn -0.168044114 -0.717353072 -0.67614033
vn -0.168044114 -0.717353072 -0.67614033
vn -0.168044114 -0.717353072 -0.67614033
vn -0.168044114 -0.717353072 -0.67614033
vn 0.168044114 0.717353072 0.67614033
vn 0.168044114 0.717353072 0.67614033
vn 0.168044114 0.717353072 0.67614033
vn 0.168044114 0.717353072 0.67614033
vn 0.168044114 0.717353072 0.67614033
f 1/1/1 7/7/7 2/2/2
f 1/1/1 6/6/6 7/7/7
f 2/2/2 8/8/8 3/3/3
f 2/2/2 7/7/7 8/8/8
f 3/3/3 9/9/9 4/4/4
f 3/3/3 8/8/8 9/9/9
f 4/4/4 10/10/10 5/5/5
f 4/4/4 9/9/9 10/10/10
f 5/5/5 6/6/6 1/1/1
f 5/5/5 10/10/10 6/6/6
f 1/1/1 2/2/2 3/3/3
f 6/6/6 8/8/8 7/7/7
f 1/1/1 3/3/3 4/4/4
f 6/6/6 9/9/9 8/8/8
f 1/1/1 4/4/4 5/5/5
f 6/6/6 10/10/10 9/9/9
f 11/11/11 17/17/17 12/12/12
f 11/11/11 16/16/16 17/17/17
f 12/12/12 18/18/18 13/13/13
f 12/12/12 17/17/17 18/18/18
f 13/13/13 19/19/19 14/14/14
f 13/13/13 18/18/18 19/19/19
f 14/14/14 20/20/20 15/15/15
f 14/14/14 19/19/19 20/20/20
f 15/15/15 16/16/16 11/11/11
f 15/15/15 20/20/20 16/16/16
f 11/11/11 12/12/12 13/13/13
f 16/16/16 18/18/18 17/17/17
f 11/11/11 13/13/13 14/14/14
f 16/16/16 19/19/19 18/18/18
f 11/11/11 14/14/14 15/15/15
f 16/16/16 20/20/20 19/19/19
f 21/21/21 27/27/27 22/22/22
f 21/21/21 26/26/26 27/27/27
f 22/22/22 28/28/28 23/23/23
f 22/22/22 27/27/27 28/28/28
f 23/23/23 29/29/29 24/24/24
f 23/23/23 28/28/28 29/29/29
f 24/24/24 30/30/30 25/25/25
f 24/24/24 29/29/29 30/30/30
f 25/25/25 26/26/26 21/21/21
f 25/25/25 30/30/30 26/26/26
f 21/21/21 22/22/22 23/23/23
f 26/26/26 28/28/28 27/27/27
f 21/21/21 23/23/23 24/24/24
f 26/26/26 29/29/29 28/28/28
f 21/21/21 24/24/24 25/25/25
f 26/26/26 30/30/30 29/29/29
f 31/31/31 37/37/37 32/32/32
f 31/31/31 36/36/36 37/37/37
f 32/32/32 38/38/38 33/33/33
f 32/32/32 37/37/37 38/38/38
f 33/33/33 39/39/39 34/34/34
f 33/33/33 38/38/38 39/39/39
f 34/34/34 40/40/40 35/35/35
f 34/34/34 39/39/39 40/40/40
f 35/35/35 36/36/36 31/31/31
f 35/35/35 40/40/40 36/36/36
f 31/31/31 32/32/32 33/33/33
f 36/36/36 38/38/38 37/37/37
f 31/31/31 33/33/33 34/34/34
f 36/36/36 39/39/39 38/38/38
f 31/31/31 34/34/34 35/35/35
f 36/36/36 40/40/40 39/39/39
f 41/41/41 47/47/47 42/42/42
f 41/41/41 46/46/46 47/47/47
f 42/42/42 48/48/48 43/43/43
f 42/42/42 47/47/47 48/48/48
f 43/43/43 49/49/49 44/44/44
f 43/43/43 48/48/48 49/49/49
f 44/44/44 50/50/50 45/45/45
f 44/44/44 49/49/49 50/50/50
f 45/45/45 46/46/46 41/41/41
f 45/45/45 50/50/50 46/46/46
f 41/41/41 42/42/42 43/43/43
f 46/46/46 48/48/48 47/47/47
f 41/41/41 43/43/43 44/44/44
f 46/46/46 49/49/49 48/48/48
f 41/41/41 44/44/44 45/45/45
f 46/46/46 50/50/50 49/49/49
f 51/51/51 57/57/57 52/52/52
f 51/51/51 56/56/56 57/57/57
f 52/52/52 58/58/58 53/53/53
f 52/52/52 57/57/57 58/58/58
f 53/53/53 59/59/59 54/54/54
f 53/53/53 58/58/58 59/59/59
f 54/54/54 60/60/60 55/55/55
f 54/54/54 59/59/59 60/60/60
f 55/55/55 56/56/56 51/51/51
f 55/55/55 60/60/60 56/56/56
f 51/51/51 52/52/52 53/53/53
f 56/56/56 58/58/58 57/57/57
f 51/51/51 53/53/53 54/54/54
f 56/56/56 59/59/59 58/58/58
f 51/51/51 54/54/54 55/55/55
f 56/56/56 60/60/60 59/59/59
f 61/61/61 62/62/62 67/67/67
f 61/61/61 67/67/67 66/66/66
f 62/62/62 63/63/63 68/68/68
f 62/62/62 68/68/68 67/67/67
f 63/63/63 64/64/64 69/69/69
f 63/63/63 69/69/69 68/68/68
f 64/64/64 65/65/65 70/70/70
f 64/64/64 70/70/70 69/69/69
f 65/65/65 61/61/61 66/66/66
f 65/65/65 66/66/66 70/70/70
f 71/71/71 73/73/73 72/72/72
f 71/71/71 74/74/74 73/73/73
f 71/71/71 75/75/75 74/74/74
f 76/76/76 77/77/77 78/78/78
f 76/76/76 78/78/78 79/79/79
f 76/76/76 79/79/79 80/80/80
f 81/81/81 82/82/82 87/87/87
f 81/81/81 87/87/87 86/86/86
f 82/82/82 83/83/83 88/88/88
f 82/82/82 88/88/88 87/87/87
f 83/83/83 84/84/84 89/89/89
f 83/83/83 89/89/89 88/88/88
f 84/84/84 85/85/85 90/90/90
f 84/84/84 90/90/90 89/89/89
f 85/85/85 81/81/81 86/86/86
f 85/85/85 86/86/86 90/90/90
f 91/91/91 93/93/93 92/92/92
f 91/91/91 94/94/94 93/93/93
f 91/91/91 95/95/95 94/94/94
f 96/96/96 97/97/97 98/98/98
f 96/96/96 98/98/98 99/99/99
f 96/96/96 99/99/99 100/100/100
f 101/101/101 102/102/102 107/107/107
f 101/101/101 107/107/107 106/106/106
f 102/102/102 103/103/103 108/108/108
f 102/102/102 108/108/108 107/107/107
f 103/103/103 104/104/104 109/109/109
f 103/103/103 109/109/109 108/108/108
f 104/104/104 105/105/105 110/110/110
f 104/104/104 110/110/110 109/109/109
f 105/105/105 101/101/101 106/106/106
f 105/105/105 106/106/106 110/110/110
f 111/111/111 113/113/113 112/112/112
f 111/111/111 114/114/114 113/113/113
f 111/111/111 115/115/115 114/114/114
f 116/116/116 117/117/117 118/118/118
f 116/116/116 118/118/118 119/119/119
f 116/116/116 119/119/119 120/120/120
