# UtilityPole_P: Y up, meters
o UtilityPole_P
v 0.0227370084 0 0.00703338092
v 0.000336979255 0 0.0237976143
v -0.0225287438 0 0.00767435355
v -0.0142605087 0 -0.0190546029
v 0.0137152648 0 -0.0194507458
v 0.0167183886 0.3 0.00517160362
v 0.000247778864 0.3 0.0174982458
v -0.0165652528 0.3 0.00564290702
v -0.0104856681 0.3 -0.0140107375
v 0.0100847535 0.3 -0.014302019
v 0.0227370084 0 0.00703338092
v 0.000336979255 0 0.0237976143
v -0.0225287438 0 0.00767435355
v -0.0142605087 0 -0.0190546029
v 0.0137152648 0 -0.0194507458
v 0.0167183886 0.3 0.00517160362
v 0.000247778864 0.3 0.0174982458
v -0.0165652528 0.3 0.00564290702
v -0.0104856681 0.3 -0.0140107375
v 0.0100847535 0.3 -0.014302019
v -0.111 0.2675 -0.0135
v -0.111 0.2425 -0.0135
v -0.111 0.2425 0.0135
v -0.111 0.2675 0.0135
v 0.111 0.2675 -0.0135
v 0.111 0.2425 -0.0135
v 0.111 0.2425 0.0135
v 0.111 0.2675 0.0135
v -0.111 0.2675 -0.0135
v -0.111 0.2425 -0.0135
v 0.111 0.2425 -0.0135
v 0.111 0.2675 -0.0135
v -0.111 0.2425 -0.0135
v -0.111 0.2425 0.0135
v 0.111 0.2425 0.0135
v 0.111 0.2425 -0.0135
v -0.111 0.2425 0.0135
v -0.111 0.2675 0.0135
v 0.111 0.2675 0.0135
v 0.111 0.2425 0.0135
v -0.111 0.2675 0.0135
v -0.111 0.2675 -0.0135
v 0.111 0.2675 -0.0135
v 0.111 0.2675 0.0135
v -0.00916963977 0.190133039 0.006
v -0.00283036023 0.197866961 0.006
v -0.00283036023 0.197866961 0.018
v -0.00916963977 0.190133039 0.018
v -0.0701696398 0.240133039 0.006
v -0.0638303602 0.247866961 0.006
v -0.0638303602 0.247866961 0.018
v -0.0701696398 0.240133039 0.018
v 0.00283036023 0.197866961 0.006
v 0.00916963977 0.190133039 0.006
v 0.00916963977 0.190133039 0.018
v 0.00283036023 0.197866961 0.018
v 0.0638303602 0.247866961 0.006
v 0.0701696398 0.240133039 0.006
v 0.0701696398 0.240133039 0.018
v 0.0638303602 0.247866961 0.018
v -0.0768076118 0.2675 0.00919238816
v -0.0951923882 0.2675 0.00919238816
v -0.0951923882 0.2675 -0.00919238816
v -0.0768076118 0.2675 -0.00919238816
v -0.0810502525 0.2775 0.00494974747
v -0.0909497475 0.2775 0.00494974747
v -0.0909497475 0.2775 -0.00494974747
v -0.0810502525 0.2775 -0.00494974747
v -0.0785753788 0.2815 0.0074246212
v -0.0934246212 0.2815 0.0074246212
v -0.0934246212 0.2815 -0.0074246212
v -0.0785753788 0.2815 -0.0074246212
v -0.0824644661 0.2915 0.00353553391
v -0.0895355339 0.2915 0.00353553391
v -0.0895355339 0.2915 -0.00353553391
v -0.0824644661 0.2915 -0.00353553391
v -0.086 0.2655 0
v -0.086 0.2975 0
v 0.0951923882 0.2675 0.00919238816
v 0.0768076118 0.2675 0.00919238816
v 0.0768076118 0.2675 -0.00919238816
v 0.0951923882 0.2675 -0.00919238816
v 0.0909497475 0.2775 0.00494974747
v 0.0810502525 0.2775 0.00494974747
v 0.0810502525 0.2775 -0.00494974747
v 0.0909497475 0.2775 -0.00494974747
v 0.0934246212 0.2815 0.0074246212
v 0.0785753788 0.2815 0.0074246212
v 0.0785753788 0.2815 -0.0074246212
v 0.0934246212 0.2815 -0.0074246212
v 0.0895355339 0.2915 0.00353553391
v 0.0824644661 0.2915 0.00353553391
v 0.0824644661 0.2915 -0.00353553391
v 0.0895355339 0.2915 -0.00353553391
v 0.086 0.2655 0
v 0.086 0.2975 0
v 0.00919238816 0.3 0.00919238816
v -0.00919238816 0.3 0.00919238816
v -0.00919238816 0.3 -0.00919238816
v 0.00919238816 0.3 -0.00919238816
v 0.00494974747 0.31 0.00494974747
v -0.00494974747 0.31 0.00494974747
v -0.00494974747 0.31 -0.00494974747
v 0.00494974747 0.31 -0.00494974747
v 0.0074246212 0.314 0.0074246212
v -0.0074246212 0.314 0.0074246212
v -0.0074246212 0.314 -0.0074246212
v 0.0074246212 0.314 -0.0074246212
v 0.00353553391 0.324 0.00353553391
v -0.00353553391 0.324 0.00353553391
v -0.00353553391 0.324 -0.00353553391
v 0.00353553391 0.324 -0.00353553391
v 0 0.298 0
v 0 0.33 0
v 0.0055 0.255 0.018
v -0.0055 0.255 0.018
v 0 0.2605 0.018
v 0 0.2495 0.018
v 0 0.255 0.021
v 0 0.255 0.015
vt 0.445918616 0.965820312
vt 0.252903659 0.965820312
vt 0.0558759438 0.965820312
vt 0.127121077 0.965820312
vt 0.368180705 0.965820312
vt 0.445918616 0.0380859375
vt 0.252903659 0.0380859375
vt 0.0558759438 0.0380859375
vt 0.127121077 0.0380859375
vt 0.368180705 0.0380859375
vt 0.328125 0.5
vt 0.274141953 0.42569871
vt 0.186795547 0.454079277
vt 0.186795547 0.545920723
vt 0.274141953 0.57430129
vt 0.328125 0.5
vt 0.274141953 0.42569871
vt 0.186795547 0.454079277
vt 0.186795547 0.545920723
vt 0.274141953 0.57430129
vt 0.162109375 0.9609375
vt 0.2890625 0.9609375
vt 0.3359375 0.921875
vt 0.208984375 0.921875
vt 0.162109375 0.08203125
vt 0.2890625 0.08203125
vt 0.3359375 0.04296875
vt 0.208984375 0.04296875
vt 0.162109375 0.9609375
vt 0.2890625 0.9609375
vt 0.2890625 0.08203125
vt 0.162109375 0.08203125
vt 0.2890625 0.9609375
vt 0.3359375 0.921875
vt 0.3359375 0.04296875
vt 0.2890625 0.08203125
vt 0.3359375 0.921875
vt 0.208984375 0.921875
vt 0.208984375 0.04296875
vt 0.3359375 0.04296875
vt 0.208984375 0.921875
vt 0.162109375 0.9609375
vt 0.162109375 0.08203125
vt 0.208984375 0.04296875
vt 0.162109375 0.931640625
vt 0.2890625 0.931640625
vt 0.3359375 0.892578125
vt 0.208984375 0.892578125
vt 0.162109375 0.169921875
vt 0.2890625 0.169921875
vt 0.3359375 0.130859375
vt 0.208984375 0.130859375
vt 0.162109375 0.931640625
vt 0.2890625 0.931640625
vt 0.3359375 0.892578125
vt 0.208984375 0.892578125
vt 0.162109375 0.169921875
vt 0.2890625 0.169921875
vt 0.3359375 0.130859375
vt 0.208984375 0.130859375
vt 0.8320126 0.965820312
vt 0.594523374 0.965820312
vt 0.6679874 0.965820312
vt 0.905476626 0.965820312
vt 0.8320126 0.825846354
vt 0.594523374 0.825846354
vt 0.6679874 0.825846354
vt 0.905476626 0.825846354
vt 0.8320126 0.769856771
vt 0.594523374 0.769856771
vt 0.6679874 0.769856771
vt 0.905476626 0.769856771
vt 0.8320126 0.629882812
vt 0.594523374 0.629882812
vt 0.6679874 0.629882812
vt 0.905476626 0.629882812
vt 0.75 0.978515625
vt 0.75 0.53515625
vt 0.8320126 0.965820312
vt 0.594523374 0.965820312
vt 0.6679874 0.965820312
vt 0.905476626 0.965820312
vt 0.8320126 0.825846354
vt 0.594523374 0.825846354
vt 0.6679874 0.825846354
vt 0.905476626 0.825846354
vt 0.8320126 0.769856771
vt 0.594523374 0.769856771
vt 0.6679874 0.769856771
vt 0.905476626 0.769856771
vt 0.8320126 0.629882812
vt 0.594523374 0.629882812
vt 0.6679874 0.629882812
vt 0.905476626 0.629882812
vt 0.75 0.978515625
vt 0.75 0.53515625
vt 0.8320126 0.965820312
vt 0.594523374 0.965820312
vt 0.6679874 0.965820312
vt 0.905476626 0.965820312
vt 0.8320126 0.825846354
vt 0.594523374 0.825846354
vt 0.6679874 0.825846354
vt 0.905476626 0.825846354
vt 0.8320126 0.769856771
vt 0.594523374 0.769856771
vt 0.6679874 0.769856771
vt 0.905476626 0.769856771
vt 0.8320126 0.629882812
vt 0.594523374 0.629882812
vt 0.6679874 0.629882812
vt 0.905476626 0.629882812
vt 0.75 0.978515625
vt 0.75 0.53515625
vt 0.876953125 0.25
vt 0.623046875 0.25
vt 0.75 0.123046875
vt 0.75 0.376953125
vt 0.75 0.25
vt 0.75 0.25
vn 0.955125907 0.020995371 0.295455066
vn 0.0141556713 0.020995371 0.999679354
vn -0.946377221 0.020995371 0.322380753
vn -0.59904896 0.020995371 -0.800437092
vn 0.576144603 0.020995371 -0.817078081
vn 0.955125907 0.020995371 0.295455066
vn 0.0141556713 0.020995371 0.999679354
vn -0.946377221 0.020995371 0.322380753
vn -0.59904896 0.020995371 -0.800437092
vn 0.576144603 0.020995371 -0.817078081
vn 0 -1 0
vn 0 -1 0
vn 0 -1 0
vn 0 -1 0
vn 0 -1 0
vn 0 1 0
vn 0 1 0
vn 0 1 0
vn 0 1 0
vn 0 1 0
vn -1 0 0
vn -1 0 0
vn -1 0 0
vn -1 0 0
vn 1 -0 -0
vn 1 -0 -0
vn 1 -0 -0
vn 1 -0 -0
vn -0 -0 -1
vn -0 -0 -1
vn -0 -0 -1
vn -0 -0 -1
vn -0 -1 -0
vn -0 -1 -0
vn -0 -1 -0
vn -0 -1 -0
vn -0 -0 1
vn -0 -0 1
vn -0 -0 1
vn -0 -0 1
vn -0 1 -0
vn -0 1 -0
vn -0 1 -0
vn -0 1 -0
vn -0.306780485 -0.648873831 -0.696310624
vn 0.576041054 0.428168447 -0.696310624
vn 0.576041054 0.428168447 0.696310624
vn -0.306780485 -0.648873831 0.696310624
vn -0.576041054 -0.428168447 -0.696310624
vn 0.306780485 0.648873831 -0.696310624
vn 0.306780485 0.648873831 0.696310624
vn -0.576041054 -0.428168447 0.696310624
vn -0.576041054 0.428168447 -0.696310624
vn 0.306780485 -0.648873831 -0.696310624
vn 0.306780485 -0.648873831 0.696310624
vn -0.576041054 0.428168447 0.696310624
vn -0.306780485 0.648873831 -0.696310624
vn 0.576041054 -0.428168447 -0.696310624
vn 0.576041054 -0.428168447 0.696310624
vn -0.306780485 0.648873831 0.696310624
vn 0.534409561 -0.339127227 0.774208722
vn -0.774208722 -0.339127227 0.534409561
vn -0.534409561 -0.339127227 -0.774208722
vn 0.774208722 -0.339127227 -0.534409561
vn 0.835377654 0.1975481 0.512951191
vn -0.512951191 0.1975481 0.835377654
vn -0.835377654 0.1975481 -0.512951191
vn 0.512951191 0.1975481 -0.835377654
vn 0.659338352 0.119885817 0.742226602
vn -0.742226602 0.119885817 0.659338352
vn -0.659338352 0.119885817 -0.742226602
vn 0.742226602 0.119885817 -0.659338352
vn 0.797082278 0.49583528 0.344684228
vn -0.344684228 0.49583528 0.797082278
vn -0.797082278 0.49583528 -0.344684228
vn 0.344684228 0.49583528 -0.797082278
vn -1.00240585e-17 -1 0
vn 0 1 0
vn 0.534409561 -0.339127227 0.774208722
vn -0.774208722 -0.339127227 0.534409561
vn -0.534409561 -0.339127227 -0.774208722
vn 0.774208722 -0.339127227 -0.534409561
vn 0.835377654 0.1975481 0.512951191
vn -0.512951191 0.1975481 0.835377654
vn -0.835377654 0.1975481 -0.512951191
vn 0.512951191 0.1975481 -0.835377654
vn 0.659338352 0.119885817 0.742226602
vn -0.742226602 0.119885817 0.659338352
vn -0.659338352 0.119885817 -0.742226602
vn 0.742226602 0.119885817 -0.659338352
vn 0.797082278 0.49583528 0.344684228
vn -0.344684228 0.49583528 0.797082278
vn -0.797082278 0.49583528 -0.344684228
vn 0.344684228 0.49583528 -0.797082278
vn -1.00240585e-17 -1 0
vn 0 1 0
vn 0.534409561 -0.339127227 0.774208722
vn -0.774208722 -0.339127227 0.534409561
vn -0.534409561 -0.339127227 -0.774208722
vn 0.774208722 -0.339127227 -0.534409561
vn 0.835377654 0.1975481 0.512951191
vn -0.512951191 0.1975481 0.835377654
vn -0.835377654 0.1975481 -0.512951191
vn 0.512951191 0.1975481 -0.835377654
vn 0.659338352 0.119885817 0.742226602
vn -0.742226602 0.119885817 0.659338352
vn -0.659338352 0.119885817 -0.742226602
vn 0.742226602 0.119885817 -0.659338352
vn 0.797082278 0.49583528 0.344684228
vn -0.344684228 0.49583528 0.797082278
vn -0.797082278 0.49583528 -0.344684228
vn 0.344684228 0.49583528 -0.797082278
vn -1.00240585e-17 -1 0
vn 0 1 -6.77626358e-17
vn 1 0 0
vn -1 0 0
vn 0 1 0
vn 0 -1 0
vn 0 0 1
vn 0 0 -1
f 1/1/1 7/7/7 2/2/2
f 1/1/1 6/6/6 7/7/7
f 2/2/2 8/8/8 3/3/3
f 2/2/2 7/7/7 8/8/8
f 3/3/3 9/9/9 4/4/4
f 3/3/3 8/8/8 9/9/9
f 4/4/4 10/10/10 5/5/5
f 4/4/4 9/9/9 10/10/10
f 5/5/5 6/6/6 1/1/1
f 5/5/5 10/10/10 6/6/6
f 11/11/11 12/12/12 13/13/13
f 11/11/11 13/13/13 14/14/14
f 11/11/11 14/14/14 15/15/15
f 16/16/16 18/18/18 17/17/17
f 16/16/16 19/19/19 18/18/18
f 16/16/16 20/20/20 19/19/19
f 21/21/21 22/22/22 23/23/23
f 21/21/21 23/23/23 24/24/24
f 25/25/25 27/27/27 26/26/26
f 25/25/25 28/28/28 27/27/27
f 29/29/29 31/31/31 30/30/30
f 29/29/29 32/32/32 31/31/31
f 33/33/33 35/35/35 34/34/34
f 33/33/33 36/36/36 35/35/35
f 37/37/37 39/39/39 38/38/38
f 37/37/37 40/40/40 39/39/39
f 41/41/41 43/43/43 42/42/42
f 41/41/41 44/44/44 43/43/43
f 45/45/45 46/46/46 47/47/47
f 45/45/45 47/47/47 48/48/48
f 49/49/49 51/51/51 50/50/50
f 49/49/49 52/52/52 51/51/51
f 45/45/45 50/50/50 46/46/46
f 45/45/45 49/49/49 50/50/50
f 46/46/46 51/51/51 47/47/47
f 46/46/46 50/50/50 51/51/51
f 47/47/47 52/52/52 48/48/48
f 47/47/47 51/51/51 52/52/52
f 48/48/48 49/49/49 45/45/45
f 48/48/48 52/52/52 49/49/49
f 53/53/53 54/54/54 55/55/55
f 53/53/53 55/55/55 56/56/56
f 57/57/57 59/59/59 58/58/58
f 57/57/57 60/60/60 59/59/59
f 53/53/53 58/58/58 54/54/54
f 53/53/53 57/57/57 58/58/58
f 54/54/54 59/59/59 55/55/55
f 54/54/54 58/58/58 59/59/59
f 55/55/55 60/60/60 56/56/56
f 55/55/55 59/59/59 60/60/60
f 56/56/56 57/57/57 53/53/53
f 56/56/56 60/60/60 57/57/57
f 61/61/61 66/66/66 62/62/62
f 61/61/61 65/65/65 66/66/66
f 62/62/62 67/67/67 63/63/63
f 62/62/62 66/66/66 67/67/67
f 63/63/63 68/68/68 64/64/64
f 63/63/63 67/67/67 68/68/68
f 64/64/64 65/65/65 61/61/61
f 64/64/64 68/68/68 65/65/65
f 65/65/65 70/70/70 66/66/66
f 65/65/65 69/69/69 70/70/70
f 66/66/66 71/71/71 67/67/67
f 66/66/66 70/70/70 71/71/71
f 67/67/67 72/72/72 68/68/68
f 67/67/67 71/71/71 72/72/72
f 68/68/68 69/69/69 65/65/65
f 68/68/68 72/72/72 69/69/69
f 69/69/69 74/74/74 70/70/70
f 69/69/69 73/73/73 74/74/74
f 70/70/70 75/75/75 71/71/71
f 70/70/70 74/74/74 75/75/75
f 71/71/71 76/76/76 72/72/72
f 71/71/71 75/75/75 76/76/76
f 72/72/72 73/73/73 69/69/69
f 72/72/72 76/76/76 73/73/73
f 77/77/77 61/61/61 62/62/62
f 78/78/78 74/74/74 73/73/73
f 77/77/77 62/62/62 63/63/63
f 78/78/78 75/75/75 74/74/74
f 77/77/77 63/63/63 64/64/64
f 78/78/78 76/76/76 75/75/75
f 77/77/77 64/64/64 61/61/61
f 78/78/78 73/73/73 76/76/76
f 79/79/79 84/84/84 80/80/80
f 79/79/79 83/83/83 84/84/84
f 80/80/80 85/85/85 81/81/81
f 80/80/80 84/84/84 85/85/85
f 81/81/81 86/86/86 82/82/82
f 81/81/81 85/85/85 86/86/86
f 82/82/82 83/83/83 79/79/79
f 82/82/82 86/86/86 83/83/83
f 83/83/83 88/88/88 84/84/84
f 83/83/83 87/87/87 88/88/88
f 84/84/84 89/89/89 85/85/85
f 84/84/84 88/88/88 89/89/89
f 85/85/85 90/90/90 86/86/86
f 85/85/85 89/89/89 90/90/90
f 86/86/86 87/87/87 83/83/83
f 86/86/86 90/90/90 87/87/87
f 87/87/87 92/92/92 88/88/88
f 87/87/87 91/91/91 92/92/92
f 88/88/88 93/93/93 89/89/89
f 88/88/88 92/92/92 93/93/93
f 89/89/89 94/94/94 90/90/90
f 89/89/89 93/93/93 94/94/94
f 90/90/90 91/91/91 87/87/87
f 90/90/90 94/94/94 91/91/91
f 95/95/95 79/79/79 80/80/80
f 96/96/96 92/92/92 91/91/91
f 95/95/95 80/80/80 81/81/81
f 96/96/96 93/93/93 92/92/92
f 95/95/95 81/81/81 82/82/82
f 96/96/96 94/94/94 93/93/93
f 95/95/95 82/82/82 79/79/79
f 96/96/96 91/91/91 94/94/94
f 97/97/97 102/102/102 98/98/98
f 97/97/97 101/101/101 102/102/102
f 98/98/98 103/103/103 99/99/99
f 98/98/98 102/102/102 103/103/103
f 99/99/99 104/104/104 100/100/100
f 99/99/99 103/103/103 104/104/104
f 100/100/100 101/101/101 97/97/97
f 100/100/100 104/104/104 101/101/101
f 101/101/101 106/106/106 102/102/102
f 101/101/101 105/105/105 106/106/106
f 102/102/102 107/107/107 103/103/103
f 102/102/102 106/106/106 107/107/107
f 103/103/103 108/108/108 104/104/104
f 103/103/103 107/107/107 108/108/108
f 104/104/104 105/105/105 101/101/101
f 104/104/104 108/108/108 105/105/105
f 105/105/105 110/110/110 106/106/106
f 105/105/105 109/109/109 110/110/110
f 106/106/106 111/111/111 107/107/107
f 106/106/106 110/110/110 111/111/111
f 107/107/107 112/112/112 108/108/108
f 107/107/107 111/111/111 112/112/112
f 108/108/108 109/109/109 105/105/105
f 108/108/108 112/112/112 109/109/109
f 113/113/113 97/97/97 98/98/98
f 114/114/114 110/110/110 109/109/109
f 113/113/113 98/98/98 99/99/99
f 114/114/114 111/111/111 110/110/110
f 113/113/113 99/99/99 100/100/100
f 114/114/114 112/112/112 111/111/111
f 113/113/113 100/100/100 97/97/97
f 114/114/114 109/109/109 112/112/112
f 115/115/115 117/117/117 119/119/119
f 115/115/115 120/120/120 117/117/117
f 115/115/115 119/119/119 118/118/118
f 115/115/115 118/118/118 120/120/120
f 116/116/116 119/119/119 117/117/117
f 116/116/116 117/117/117 120/120/120
f 116/116/116 118/118/118 119/119/119
f 116/116/116 120/120/120 118/118/118
