# Fluid hollow cylinder mesh for Unity
# Axis: X
# Length: 1.0
# Outer diameter: 1.0
# Inner diameter: 0.6
# Pivot: center at (0, 0, 0)
o Fluid_HollowCylinder

v -0.500000 0.500000 0.000000
v -0.500000 0.490393 0.097545
v -0.500000 0.461940 0.191342
v -0.500000 0.415735 0.277785
v -0.500000 0.353553 0.353553
v -0.500000 0.277785 0.415735
v -0.500000 0.191342 0.461940
v -0.500000 0.097545 0.490393
v -0.500000 0.000000 0.500000
v -0.500000 -0.097545 0.490393
v -0.500000 -0.191342 0.461940
v -0.500000 -0.277785 0.415735
v -0.500000 -0.353553 0.353553
v -0.500000 -0.415735 0.277785
v -0.500000 -0.461940 0.191342
v -0.500000 -0.490393 0.097545
v -0.500000 -0.500000 0.000000
v -0.500000 -0.490393 -0.097545
v -0.500000 -0.461940 -0.191342
v -0.500000 -0.415735 -0.277785
v -0.500000 -0.353553 -0.353553
v -0.500000 -0.277785 -0.415735
v -0.500000 -0.191342 -0.461940
v -0.500000 -0.097545 -0.490393
v -0.500000 -0.000000 -0.500000
v -0.500000 0.097545 -0.490393
v -0.500000 0.191342 -0.461940
v -0.500000 0.277785 -0.415735
v -0.500000 0.353553 -0.353553
v -0.500000 0.415735 -0.277785
v -0.500000 0.461940 -0.191342
v -0.500000 0.490393 -0.097545
v 0.500000 0.500000 0.000000
v 0.500000 0.490393 0.097545
v 0.500000 0.461940 0.191342
v 0.500000 0.415735 0.277785
v 0.500000 0.353553 0.353553
v 0.500000 0.277785 0.415735
v 0.500000 0.191342 0.461940
v 0.500000 0.097545 0.490393
v 0.500000 0.000000 0.500000
v 0.500000 -0.097545 0.490393
v 0.500000 -0.191342 0.461940
v 0.500000 -0.277785 0.415735
v 0.500000 -0.353553 0.353553
v 0.500000 -0.415735 0.277785
v 0.500000 -0.461940 0.191342
v 0.500000 -0.490393 0.097545
v 0.500000 -0.500000 0.000000
v 0.500000 -0.490393 -0.097545
v 0.500000 -0.461940 -0.191342
v 0.500000 -0.415735 -0.277785
v 0.500000 -0.353553 -0.353553
v 0.500000 -0.277785 -0.415735
v 0.500000 -0.191342 -0.461940
v 0.500000 -0.097545 -0.490393
v 0.500000 -0.000000 -0.500000
v 0.500000 0.097545 -0.490393
v 0.500000 0.191342 -0.461940
v 0.500000 0.277785 -0.415735
v 0.500000 0.353553 -0.353553
v 0.500000 0.415735 -0.277785
v 0.500000 0.461940 -0.191342
v 0.500000 0.490393 -0.097545
v -0.500000 0.300000 0.000000
v -0.500000 0.294236 0.058527
v -0.500000 0.277164 0.114805
v -0.500000 0.249441 0.166671
v -0.500000 0.212132 0.212132
v -0.500000 0.166671 0.249441
v -0.500000 0.114805 0.277164
v -0.500000 0.058527 0.294236
v -0.500000 0.000000 0.300000
v -0.500000 -0.058527 0.294236
v -0.500000 -0.114805 0.277164
v -0.500000 -0.166671 0.249441
v -0.500000 -0.212132 0.212132
v -0.500000 -0.249441 0.166671
v -0.500000 -0.277164 0.114805
v -0.500000 -0.294236 0.058527
v -0.500000 -0.300000 0.000000
v -0.500000 -0.294236 -0.058527
v -0.500000 -0.277164 -0.114805
v -0.500000 -0.249441 -0.166671
v -0.500000 -0.212132 -0.212132
v -0.500000 -0.166671 -0.249441
v -0.500000 -0.114805 -0.277164
v -0.500000 -0.058527 -0.294236
v -0.500000 -0.000000 -0.300000
v -0.500000 0.058527 -0.294236
v -0.500000 0.114805 -0.277164
v -0.500000 0.166671 -0.249441
v -0.500000 0.212132 -0.212132
v -0.500000 0.249441 -0.166671
v -0.500000 0.277164 -0.114805
v -0.500000 0.294236 -0.058527
v 0.500000 0.300000 0.000000
v 0.500000 0.294236 0.058527
v 0.500000 0.277164 0.114805
v 0.500000 0.249441 0.166671
v 0.500000 0.212132 0.212132
v 0.500000 0.166671 0.249441
v 0.500000 0.114805 0.277164
v 0.500000 0.058527 0.294236
v 0.500000 0.000000 0.300000
v 0.500000 -0.058527 0.294236
v 0.500000 -0.114805 0.277164
v 0.500000 -0.166671 0.249441
v 0.500000 -0.212132 0.212132
v 0.500000 -0.249441 0.166671
v 0.500000 -0.277164 0.114805
v 0.500000 -0.294236 0.058527
v 0.500000 -0.300000 0.000000
v 0.500000 -0.294236 -0.058527
v 0.500000 -0.277164 -0.114805
v 0.500000 -0.249441 -0.166671
v 0.500000 -0.212132 -0.212132
v 0.500000 -0.166671 -0.249441
v 0.500000 -0.114805 -0.277164
v 0.500000 -0.058527 -0.294236
v 0.500000 -0.000000 -0.300000
v 0.500000 0.058527 -0.294236
v 0.500000 0.114805 -0.277164
v 0.500000 0.166671 -0.249441
v 0.500000 0.212132 -0.212132
v 0.500000 0.249441 -0.166671
v 0.500000 0.277164 -0.114805
v 0.500000 0.294236 -0.058527

# Normals: outer ring, inner ring, left cap, right cap
vn 0.000000 1.000000 0.000000
vn 0.000000 0.980785 0.195090
vn 0.000000 0.923880 0.382683
vn 0.000000 0.831470 0.555570
vn 0.000000 0.707107 0.707107
vn 0.000000 0.555570 0.831470
vn 0.000000 0.382683 0.923880
vn 0.000000 0.195090 0.980785
vn 0.000000 0.000000 1.000000
vn 0.000000 -0.195090 0.980785
vn 0.000000 -0.382683 0.923880
vn 0.000000 -0.555570 0.831470
vn 0.000000 -0.707107 0.707107
vn 0.000000 -0.831470 0.555570
vn 0.000000 -0.923880 0.382683
vn 0.000000 -0.980785 0.195090
vn 0.000000 -1.000000 0.000000
vn 0.000000 -0.980785 -0.195090
vn 0.000000 -0.923880 -0.382683
vn 0.000000 -0.831470 -0.555570
vn 0.000000 -0.707107 -0.707107
vn 0.000000 -0.555570 -0.831470
vn 0.000000 -0.382683 -0.923880
vn 0.000000 -0.195090 -0.980785
vn 0.000000 -0.000000 -1.000000
vn 0.000000 0.195090 -0.980785
vn 0.000000 0.382683 -0.923880
vn 0.000000 0.555570 -0.831470
vn 0.000000 0.707107 -0.707107
vn 0.000000 0.831470 -0.555570
vn 0.000000 0.923880 -0.382683
vn 0.000000 0.980785 -0.195090
vn 0.000000 -1.000000 0.000000
vn 0.000000 -0.980785 -0.195090
vn 0.000000 -0.923880 -0.382683
vn 0.000000 -0.831470 -0.555570
vn 0.000000 -0.707107 -0.707107
vn 0.000000 -0.555570 -0.831470
vn 0.000000 -0.382683 -0.923880
vn 0.000000 -0.195090 -0.980785
vn 0.000000 -0.000000 -1.000000
vn 0.000000 0.195090 -0.980785
vn 0.000000 0.382683 -0.923880
vn 0.000000 0.555570 -0.831470
vn 0.000000 0.707107 -0.707107
vn 0.000000 0.831470 -0.555570
vn 0.000000 0.923880 -0.382683
vn 0.000000 0.980785 -0.195090
vn 0.000000 1.000000 -0.000000
vn 0.000000 0.980785 0.195090
vn 0.000000 0.923880 0.382683
vn 0.000000 0.831470 0.555570
vn 0.000000 0.707107 0.707107
vn 0.000000 0.555570 0.831470
vn 0.000000 0.382683 0.923880
vn 0.000000 0.195090 0.980785
vn 0.000000 0.000000 1.000000
vn 0.000000 -0.195090 0.980785
vn 0.000000 -0.382683 0.923880
vn 0.000000 -0.555570 0.831470
vn 0.000000 -0.707107 0.707107
vn 0.000000 -0.831470 0.555570
vn 0.000000 -0.923880 0.382683
vn 0.000000 -0.980785 0.195090
vn -1.000000 0.000000 0.000000
vn 1.000000 0.000000 0.000000

g OuterWall
s 1
f 1//1 2//2 34//2 33//1
f 2//2 3//3 35//3 34//2
f 3//3 4//4 36//4 35//3
f 4//4 5//5 37//5 36//4
f 5//5 6//6 38//6 37//5
f 6//6 7//7 39//7 38//6
f 7//7 8//8 40//8 39//7
f 8//8 9//9 41//9 40//8
f 9//9 10//10 42//10 41//9
f 10//10 11//11 43//11 42//10
f 11//11 12//12 44//12 43//11
f 12//12 13//13 45//13 44//12
f 13//13 14//14 46//14 45//13
f 14//14 15//15 47//15 46//14
f 15//15 16//16 48//16 47//15
f 16//16 17//17 49//17 48//16
f 17//17 18//18 50//18 49//17
f 18//18 19//19 51//19 50//18
f 19//19 20//20 52//20 51//19
f 20//20 21//21 53//21 52//20
f 21//21 22//22 54//22 53//21
f 22//22 23//23 55//23 54//22
f 23//23 24//24 56//24 55//23
f 24//24 25//25 57//25 56//24
f 25//25 26//26 58//26 57//25
f 26//26 27//27 59//27 58//26
f 27//27 28//28 60//28 59//27
f 28//28 29//29 61//29 60//28
f 29//29 30//30 62//30 61//29
f 30//30 31//31 63//31 62//30
f 31//31 32//32 64//32 63//31
f 32//32 1//1 33//1 64//32

g InnerWall
s 1
f 65//33 97//33 98//34 66//34
f 66//34 98//34 99//35 67//35
f 67//35 99//35 100//36 68//36
f 68//36 100//36 101//37 69//37
f 69//37 101//37 102//38 70//38
f 70//38 102//38 103//39 71//39
f 71//39 103//39 104//40 72//40
f 72//40 104//40 105//41 73//41
f 73//41 105//41 106//42 74//42
f 74//42 106//42 107//43 75//43
f 75//43 107//43 108//44 76//44
f 76//44 108//44 109//45 77//45
f 77//45 109//45 110//46 78//46
f 78//46 110//46 111//47 79//47
f 79//47 111//47 112//48 80//48
f 80//48 112//48 113//49 81//49
f 81//49 113//49 114//50 82//50
f 82//50 114//50 115//51 83//51
f 83//51 115//51 116//52 84//52
f 84//52 116//52 117//53 85//53
f 85//53 117//53 118//54 86//54
f 86//54 118//54 119//55 87//55
f 87//55 119//55 120//56 88//56
f 88//56 120//56 121//57 89//57
f 89//57 121//57 122//58 90//58
f 90//58 122//58 123//59 91//59
f 91//59 123//59 124//60 92//60
f 92//60 124//60 125//61 93//61
f 93//61 125//61 126//62 94//62
f 94//62 126//62 127//63 95//63
f 95//63 127//63 128//64 96//64
f 96//64 128//64 97//33 65//33

g LeftRim
s off
f 1//65 65//65 66//65 2//65
f 2//65 66//65 67//65 3//65
f 3//65 67//65 68//65 4//65
f 4//65 68//65 69//65 5//65
f 5//65 69//65 70//65 6//65
f 6//65 70//65 71//65 7//65
f 7//65 71//65 72//65 8//65
f 8//65 72//65 73//65 9//65
f 9//65 73//65 74//65 10//65
f 10//65 74//65 75//65 11//65
f 11//65 75//65 76//65 12//65
f 12//65 76//65 77//65 13//65
f 13//65 77//65 78//65 14//65
f 14//65 78//65 79//65 15//65
f 15//65 79//65 80//65 16//65
f 16//65 80//65 81//65 17//65
f 17//65 81//65 82//65 18//65
f 18//65 82//65 83//65 19//65
f 19//65 83//65 84//65 20//65
f 20//65 84//65 85//65 21//65
f 21//65 85//65 86//65 22//65
f 22//65 86//65 87//65 23//65
f 23//65 87//65 88//65 24//65
f 24//65 88//65 89//65 25//65
f 25//65 89//65 90//65 26//65
f 26//65 90//65 91//65 27//65
f 27//65 91//65 92//65 28//65
f 28//65 92//65 93//65 29//65
f 29//65 93//65 94//65 30//65
f 30//65 94//65 95//65 31//65
f 31//65 95//65 96//65 32//65
f 32//65 96//65 65//65 1//65

g RightRim
s off
f 33//66 34//66 98//66 97//66
f 34//66 35//66 99//66 98//66
f 35//66 36//66 100//66 99//66
f 36//66 37//66 101//66 100//66
f 37//66 38//66 102//66 101//66
f 38//66 39//66 103//66 102//66
f 39//66 40//66 104//66 103//66
f 40//66 41//66 105//66 104//66
f 41//66 42//66 106//66 105//66
f 42//66 43//66 107//66 106//66
f 43//66 44//66 108//66 107//66
f 44//66 45//66 109//66 108//66
f 45//66 46//66 110//66 109//66
f 46//66 47//66 111//66 110//66
f 47//66 48//66 112//66 111//66
f 48//66 49//66 113//66 112//66
f 49//66 50//66 114//66 113//66
f 50//66 51//66 115//66 114//66
f 51//66 52//66 116//66 115//66
f 52//66 53//66 117//66 116//66
f 53//66 54//66 118//66 117//66
f 54//66 55//66 119//66 118//66
f 55//66 56//66 120//66 119//66
f 56//66 57//66 121//66 120//66
f 57//66 58//66 122//66 121//66
f 58//66 59//66 123//66 122//66
f 59//66 60//66 124//66 123//66
f 60//66 61//66 125//66 124//66
f 61//66 62//66 126//66 125//66
f 62//66 63//66 127//66 126//66
f 63//66 64//66 128//66 127//66
f 64//66 33//66 97//66 128//66
